<svg width="25" height="25" fill="none" xmlns="http://www.w3.org/2000/svg"><g clip-path="url(#clip0_35_795)" fill-rule="evenodd" clip-rule="evenodd" fill="#F63"><path d="M25 9.266v.36c-.03.373-.153.733-.373 1.032-.244.33-1.814 1.857-2.174 2.218l-1.466 1.466c-.146.146-.195.244-.342.39l-1.472 1.46c-.19.19-.134.25-.128.599v5.857c.006 1.387-.96 2.346-2.053 2.346H2.052C1.032 24.994 0 23.962 0 22.942V2.046C0 1.026 1.032-.006 2.052-.006H14.94c.947 0 1.655.898 2.162 1.405.758.757 1.753 1.533 1.924 2.473.055.3.019 5.693.019 6.133.183-.122 1.893-1.887 2.406-2.327.794-.678 2.077-.623 2.926.22.373.372.58.867.623 1.368zm-9.913 7.873c.012-.14.397-1.362.5-1.502.104-.135.227-.202.33-.355l1.014.99c-.244.385-.458.427-.8.543-.262.086-.806.306-1.044.324zm2.895-1.893l-1.002-1.027 3.512-3.487 1.002.977-3.512 3.537zm-4.844 3.066c0 .513.269.782.782.782.159 0 2.755-.85 3.25-1.045.177-.073.256-.146.409-.226 0 .867.049 4.24 0 4.93-.037.506-.33.781-.88.781H2.345c-.574 0-.88-.305-.88-.88V2.345c0-.574.306-.88.88-.88h10.836v3.763c0 .3.336.636.635.636h3.757v5.564c0 .275-3.146 2.944-3.415 3.665-.17.464-1.032 3.023-1.032 3.219h.012zm9.425-7.666l-.99-.965c.202-.293.862-.99 1.234-.99a.74.74 0 01.666 1.008c-.073.19-.745.837-.91.947zm-7.91-9.18c.617.012 1.093.678 1.674 1.258.58.58 1.246 1.05 1.258 1.674h-2.932V1.466z"/><path d="M2.932 7.959c0 .476.238.83.635.83h10.45c.844 0 .844-1.466 0-1.466H3.568c-.3 0-.635.336-.635.636zm0 2.925c0 .477.238.831.635.831h7.52c.842 0 .842-1.466 0-1.466h-7.52c-.3 0-.635.336-.635.635zm0 5.864c0 .477.238.83.635.83h7.52c.842 0 .842-1.465 0-1.465h-7.52c-.3 0-.635.336-.635.635zm0-2.932c0 .477.238.83.635.83h7.52c.842 0 .842-1.465 0-1.465h-7.52c-.3 0-.635.336-.635.635zm5.858 7.422c0 .476.238.83.635.83h4.587c.842 0 .842-1.466 0-1.466H9.425c-.3 0-.636.336-.636.636z"/></g><defs><clipPath id="clip0_35_795"><path fill="#fff" d="M0 0h25v25H0z"/></clipPath></defs></svg>