<svg width="29" height="23" fill="none" xmlns="http://www.w3.org/2000/svg"><path fill-rule="evenodd" clip-rule="evenodd" d="M15.586 19.134V3.955c.32-.078.716-.286 1.044-.408 2.366-.86 5.242-.851 7.607-.017.363.13.76.347 1.097.425v15.18c-.337-.079-.725-.227-1.062-.322-2.124-.626-4.395-.704-6.57-.27-.623.122-1.616.348-2.116.591zm-12.65 0V3.955c.26-.06 1.157-.469 2.176-.73 2.08-.53 4.49-.399 6.485.305.362.13.76.347 1.096.425v15.18c-1.787-.86-5.483-1.096-7.581-.6l-2.176.6zm-1.45 3.78c.664 0 1.666-.713 2.858-1.104 1.243-.408 1.821-.425 3.004-.486.657-.035.018-.078.855 0 .173.017.354 0 .527 0 1.174.026 2.918.538 3.954 1.06 2.297 1.164 1.313.425 4.257-.556 1.39-.46 2.047-.409 3.402-.556.717-.079 2.677.26 3.428.486a8.867 8.867 0 011.425.556c.518.26.976.6 1.58.6.993 0 1.45-.652 1.45-1.66V3.286c0-.851-.362-1.398-1.001-1.572-.294-.078-.233-.035-.492-.174-6.606-3.388-12.382-.06-12.598-.07-.155-.008-.838-.356-1.062-.443C9.049-.563 4.827-.276.993 1.67c-.794.4-.967.791-.967 1.947v14.918c0 .973 0 1.972-.026 2.928-.017.79.588 1.45 1.468 1.45h.018z" fill="#F63"/></svg>