<svg width="15" height="20" fill="none" xmlns="http://www.w3.org/2000/svg"><path fill-rule="evenodd" clip-rule="evenodd" d="M5.86 12.618v-.235c0-.758.764-1.522 1.522-1.522h.235c.758 0 1.522.764 1.522 1.522 0 .458-.066.861-.379 1.183-.4.41-.286.163-.21.97.039.414.08.782.126 1.2.123 1.104.075.906-2.037.906-.485 0-.356-.63-.325-.87l.204-1.794c.018-.337-.662-.481-.662-1.357l.003-.003zM7.432 0h.34c1.114 0 2.375.524 3.265 1.189.548.409 1.047.98 1.415 1.552.972 1.517.905 2.935.905 4.758h1.25a.42.42 0 01.39.391v10.548c0 .783-.779 1.562-1.561 1.562H1.562C.779 20 0 19.22 0 18.438V7.89a.42.42 0 01.391-.39h1.25V6.29c0-1.827.49-3.353 1.732-4.596.638-.64 1.689-1.273 2.573-1.49.747-.182.921-.2 1.487-.204zM4.18 5.742c0-1.776 1.6-3.244 3.32-3.244l.724.096c1.442.322 2.595 1.658 2.595 3.148v1.757H4.176V5.742h.003z" fill="#34A343"/></svg>