<svg width="50" height="50" fill="none" xmlns="http://www.w3.org/2000/svg"><g clip-path="url(#clip0_35_451)"><path fill-rule="evenodd" clip-rule="evenodd" d="M3.97 11.49C11.431-.128 26.891-3.494 38.51 3.97c11.617 7.462 14.983 22.922 7.52 34.54-7.462 11.617-22.922 14.983-34.54 7.52C-.128 38.569-3.494 23.109 3.97 11.49z" fill="url(#paint0_linear_35_451)"/><path d="M18.175 41.307a.342.342 0 01-.15-.058c-2.148-1.068-3.238-2.495-3.772-3.993-.523-1.462-.5-2.948-.441-4.201.116-2.693 2.216-4.631 4.247-6.511a7.037 7.037 0 001.95-2.623c.337-.813.441-1.625.174-2.24-.986-2.217-3.841-.279-5.153.464a.662.662 0 01-.893-.244.662.662 0 01.243-.893l2.333-1.312c.186-.65.51-1.16.905-1.52a2.665 2.665 0 011.51-.674 2.805 2.805 0 011.6.314c.616.313 1.162.847 1.533 1.59 1.706 3.435.743 6.105-1.834 8.484-1.126 1.045-1.172 2.008-1.056 3.099 2.066-1.288 5.989-6.743 7.834-9.297.5-.684.848-1.172.998-1.346a.683.683 0 01.29-.197c2.043-.813 4.469-1.846 6.686-3.134 2.17-1.265 4.12-2.786 5.246-4.596a.655.655 0 01.905-.21c.383.454.43 1.649.441 2.392.023 1.137.058 2.739-.07 4.55 1.382-.732 2.658-1.579 3.715-2.566l-.012.093c-.07 1.056-.174 2.53-.43 4.179-1.392.847-2.553 1.218-3.679 1.392-.093.453-.185.906-.313 1.358a10.354 10.354 0 003.668-1.08 21.86 21.86 0 01-.825 2.844h-.034c-1.393.198-2.472.256-3.447.186-.047.116-.093.22-.128.325-.128.302-.279.615-.441.929l.371.034c.917.07 1.904.035 3.087-.092-.08.162-.162.336-.255.499-.348.673-.847 1.38-1.45 2.112-1.382-.163-2.287-.313-3.053-.522-.279.371-.569.73-.882 1.102.766.256 1.601.43 2.855.604a21.472 21.472 0 01-2.217 1.927c-.011 0-.023-.012-.035-.012-1.021-.302-1.74-.522-2.298-.731-.348.325-.72.65-1.09.963.545.244 1.172.464 2.054.743l-.07.046c-.65.407-1.312.79-1.996 1.114-.22-.046-.314-.07-.418-.092-.5-.105-.975-.21-1.462-.407-.441.29-.883.558-1.347.813.395.232.778.395 1.15.522-1.15.36-2.31.58-3.46.58-.092 0-.174.012-.243.024l-.093.035c-.22.092-.337.301-.337.615 0 .336.778 1.23 1.73 2.24.928.824 1.636 1.532 1.625 1.868-.012.441-.337.546-.79.534l-12.976.012v-.035z" fill="#fff"/><path fill-rule="evenodd" clip-rule="evenodd" d="M2.38 21.414l4.003 9.424c.14.313.465.5.708.569.29.081.5.011.801-.116l.232-.093 6.848-2.913h-.011l-4.12.313c-.221 0-.43-.07-.604-.186-.174-.116-.325-.313-.441-.58l-.743-1.741c-.302.128-.638.325-.824-.116L7.16 23.468c-.186-.441.186-.546.488-.673l-.743-1.741c-.383-.917.15-1.265.673-1.73.186-.162.348-.313.522-.464l2.066-1.845-6.824 2.901-.302.128c-.267.116-.441.22-.58.464-.128.22-.221.592-.093.917l.011-.011z" fill="#fff"/><path fill-rule="evenodd" clip-rule="evenodd" d="M12.523 20.717c.256-.116.453-.034.569.233l1.068 2.506c.185.442-.186.546-.488.674l-1.404-3.297.267-.116h-.012zm-.15-.72l-.395.175-1.172-2.75c-.105.057-.349.29-.453.382-.36.314-2.74 2.368-2.832 2.542-.035.07-.07.186-.035.279l.8 1.891c.303-.127.64-.325.825.116l1.068 2.507c.185.441-.186.546-.488.674l.801 1.891c.035.093.14.14.209.163.186.058 1.822-.116 2.043-.128l1.752-.14c.151-.01.488-.022.604-.057l-1.172-2.75.394-.175c.464-.197.731-.859.534-1.323l-1.184-2.774c-.197-.464-.859-.731-1.323-.534l.023.012z" fill="#fff"/><path fill-rule="evenodd" clip-rule="evenodd" d="M7.916 23.456l.847 1.974.661-.28-.847-1.984-.661.29z" fill="#fff"/></g><defs><linearGradient id="paint0_linear_35_451" x1="45.938" y1="9.018" x2="8.635" y2="42.734" gradientUnits="userSpaceOnUse"><stop stop-color="#34A343"/><stop offset=".29" stop-color="#34A343"/><stop offset=".631" stop-color="#F63"/><stop offset="1" stop-color="#F63"/></linearGradient><clipPath id="clip0_35_451"><path fill="#fff" d="M0 0h50v50H0z"/></clipPath></defs></svg>