<svg width="29" height="25" fill="none" xmlns="http://www.w3.org/2000/svg"><g fill-rule="evenodd" clip-rule="evenodd" fill="#fff" clip-path="url(#clip0_35_472)"><path d="M2.328 24.995h23.765c.784 0 1.47-.539 1.837-.98.442-.539.49-1.053.49-1.837V4.34l-.024.025-3.063 9.09c-.195.49-.538.857-.93 1.127-.417.27-.98.416-1.642.416h-4.386c0 .76.123 1.666-1.004 1.666H11.05c-1.127 0-1.005-.906-1.005-1.666H5.66c-2.303 0-2.573-1.47-3.087-3.014-.172-.538-.343-1.028-.515-1.543L0 4.342v17.983c0 .686.074 1.151.466 1.666.367.465 1.078 1.029 1.862 1.029v-.025z"/><path d="M10.045 2.675c0-.661.343-1.004 1.005-1.004h6.32c1.128 0 1.005.906 1.005 1.666h-8.33v-.662zM8.38 2.332v1.005H1.446c.024.294.294 1.004.416 1.323.343 1.053 2.573 8.011 2.867 8.354.122.148.318.319.563.319h4.778c0-.76-.123-1.666 1.004-1.666h6.321c1.127 0 1.005.906 1.005 1.666h4.777c.22 0 .417-.147.54-.294.294-.343 1.42-3.994 1.568-4.484l1.298-3.87c.098-.32.392-1.079.417-1.348h-6.934V2.332c0-1.151-1.176-2.327-2.328-2.327h-7.007C9.58.005 8.404 1.18 8.404 2.332h-.025zm3.331 12.667h5.023v-1.666H11.71v1.666z"/></g><defs><clipPath id="clip0_35_472"><path fill="#fff" d="M0 0h28.445v25H0z"/></clipPath></defs></svg>