<svg width="25" height="25" fill="none" xmlns="http://www.w3.org/2000/svg"><g clip-path="url(#clip0_62_513)"><path fill-rule="evenodd" clip-rule="evenodd" d="M6.868 12.61c0-.742.412-1.223 1.058-1.223h9.148c1.401 0 1.401 2.24 0 2.24H7.926c-.536 0-1.058-.468-1.058-1.017zM4.574 7.926c0-.536.454-1.058 1.017-1.058h13.832c1.264 0 1.47 2.24-.206 2.24H5.811c-.715 0-1.223-.454-1.223-1.168l-.014-.014zM0 5.632v9.258c0 1.965 1.113 3.681 2.72 4.725.316.207 1.332.687 1.8.701v3.297c0 .783.439 1.387 1.167 1.387.55 0 1.84-1.003 2.335-1.332l4.41-2.94c.233-.151.26-.26.645-.26 1.95 0 5.783.137 7.28-.125.234-.04.55-.123.77-.192a6.23 6.23 0 001.25-.618C23.956 18.462 25 16.841 25 14.766V5.564c0-1.415-.7-2.967-1.662-3.928-.412-.412-1.14-.893-1.676-1.14-.59-.289-1.456-.509-2.307-.509H5.632c-3.05 0-5.646 2.583-5.646 5.646H0z" fill="#34A343"/></g><defs><clipPath id="clip0_62_513"><path fill="#fff" d="M0 0h25v25H0z"/></clipPath></defs></svg>