<svg width="13" height="13" fill="none" xmlns="http://www.w3.org/2000/svg"><g clip-path="url(#clip0_35_584)"><path fill-rule="evenodd" clip-rule="evenodd" d="M2.729 5.471c.05.025.095.062.148.1.048.037.098.067.15.1.096.065.194.14.283.202.08.054.149.1.224.155.084.061.611.408.636.447.105.048.23.153.327.217l.23.157c.048.032.037.018.066.064.044.004 0-.01.048.016l.566.367c.043.01.235.075.256.103.152-.005.515.155 1.095.011a1.68 1.68 0 00.152-.043c.055-.018.1-.048.156-.053.036-.043.114-.061.168-.095.06-.037.096-.06.151-.099.1-.068.196-.141.306-.207l.49-.345c.041-.027.123-.09.17-.11.026-.038.24-.173.298-.216.05-.036.091-.06.148-.103.048-.034.1-.086.16-.098.007-.013.871-.63.944-.654v3.465l-7.298.002V5.387c.057.02.082.05.123.077l.003.007zm6.009-.303c-.03.036-.242.173-.299.214-.08.057-.228.171-.31.203-.02.037-.103.078-.15.112-.062.04-.106.073-.156.11-.1.07-.212.154-.315.214-.009.011-.004.004-.02.018a.096.096 0 01-.016.011c-.02.016-.028.019-.041.03-.1.07-.498.351-.546.363l-.032.032a1 1 0 01-.328.13 1.429 1.429 0 01-.452.016.924.924 0 01-.262-.066c-.037-.014-.069-.025-.107-.048-.046-.025-.067-.034-.087-.071-.041-.007-.11-.064-.16-.098-.08-.057-.44-.294-.456-.326-.057-.016-.265-.167-.324-.212-.091-.069-.22-.142-.303-.215-.151-.1-.29-.196-.434-.299-.141-.1-.29-.198-.427-.296-.05-.025-.107-.073-.157-.105a5.785 5.785 0 01-.148-.103c-.057-.041-.274-.176-.297-.221-.039-.005-.05-.019-.089-.048-.025-.016-.05-.037-.073-.053l-.073-.05c-.023-.016-.061-.041-.068-.064v-.7h7.298v.7c-.023.044.007.007-.034.044l-.543.374c-.05.034-.094.064-.146.102a5.45 5.45 0 01-.149.1c-.052.037-.09.065-.148.103-.055.037-.093.071-.144.096l-.004.003zM3.543.607a9.993 9.993 0 01-.397.214c-.1.069-.217.133-.32.199-.107.068-.193.146-.3.21l-.359.283c-.038.032-.04.048-.084.08-.14.102-.297.298-.408.397l-.229.257-.068.085c-.03.039-.11.157-.141.17-.021.065-.165.245-.215.323-.066.102-.132.219-.198.319-.016.043-.057.105-.083.148-.148.244-.38.847-.463 1.109a6.117 6.117 0 00-.235 1.127c-.011.094-.016.345-.043.406v.63c.02.045.062.563.078.677.068.422.166.797.31 1.187.045.127.21.479.217.534.052.04.073.127.107.187.034.061.084.137.112.196.073.178.392.586.406.643.048.02.253.308.305.363l.762.737.872.6c.066.03.12.057.192.1.054.034.141.055.178.103.05.005.449.187.556.223.422.149.776.245 1.239.315l.716.066h.406c.032-.01.292-.022.354-.027a5.574 5.574 0 001-.171c.212-.062.412-.112.595-.183l.561-.228c.007-.006.374-.205.397-.214.098-.066.217-.132.32-.199.056-.038.102-.068.155-.107.052-.039.114-.089.166-.105.014-.034.132-.114.171-.141l.35-.304c.056-.066.116-.107.17-.164.06-.064.087-.096.158-.162l.433-.525c.032-.032-.007-.004.016-.013.037-.082.133-.199.187-.285.04-.064.023-.06.069-.09.004-.036.009-.036.032-.075l.31-.552c.032-.093.077-.185.119-.283a6.493 6.493 0 00.424-1.524c.011-.082.06-.684.066-.702v-.518c-.02-.046-.06-.564-.078-.678a6.164 6.164 0 00-.31-1.186c-.043-.119-.21-.488-.216-.534-.053-.041-.078-.135-.112-.196-.032-.06-.087-.135-.105-.201-.02-.014-.107-.167-.135-.212-.164-.27-.276-.397-.454-.632l-.422-.466c-.04-.043-.075-.061-.118-.105-.042-.038-.064-.077-.11-.114l-.24-.205c-.136-.103-.26-.208-.413-.313-.068-.045-.146-.1-.219-.14-.04-.026-.2-.117-.212-.136-.08-.034-.127-.068-.21-.11C9.094.665 9.007.64 8.966.59L8.432.372a6.247 6.247 0 00-1.186-.31c-.117-.019-.63-.057-.678-.078H6.05c-.018.007-.616.055-.702.066-.224.03-.434.08-.65.133a6.03 6.03 0 00-.594.182l-.56.226v.016z" fill="#34A343"/></g><defs><clipPath id="clip0_35_584"><path fill="#fff" d="M0 0h12.507v12.507H0z"/></clipPath></defs></svg>