<svg width="13" height="13" fill="none" xmlns="http://www.w3.org/2000/svg"><path fill-rule="evenodd" clip-rule="evenodd" d="M6.253 0A6.257 6.257 0 000 6.254a6.257 6.257 0 006.253 6.253 6.257 6.257 0 006.254-6.253A6.257 6.257 0 006.253 0zm3.305 9.13l-.502.501c-.084.094-.356.147-.356.147a5.92 5.92 0 01-4.224-1.726A5.926 5.926 0 012.75 3.807s.052-.251.147-.345l.501-.502a.83.83 0 01.785-.188l.104.03c.24.085.502.356.575.607l.251.92a.883.883 0 01-.209.795l-.334.335a3.567 3.567 0 002.499 2.5l.334-.335c.189-.189.544-.272.795-.21l.92.251c.251.074.523.325.607.576l.031.104a.83.83 0 01-.188.784h-.01z" fill="#34A343"/></svg>