<svg width="31" height="45" fill="none" xmlns="http://www.w3.org/2000/svg"><path fill-rule="evenodd" clip-rule="evenodd" d="M19.803 44.895H19.7l.051.105v-.105c.568-.105 2.22-1.208 2.685-1.575.465-.315.775-.578 1.24-.893 1.084-.84 2.478-2.205 3.304-3.255.31-.42.568-.788.878-1.26.258-.368.671-1.05.774-1.47.258-.211.31-.526.465-.894.878-2.1 1.033-3.57.93-5.776 0-.577-.259-1.942-.465-2.31-.62-2.783-3.047-5.618-4.905-7.509L22.23 17.38c-.413-.42-.775-.892-1.136-1.365-3.15-3.99-4.08-8.874-4.08-16.015-.464.105-1.755 1.838-2.168 2.258-1.136 1.208-2.84 3.938-3.511 5.566-.103.262-.207.367-.31.682l-.723 1.786c-.62 1.838-1.084 4.41-1.084 6.458 0 .63-.052 1.366 0 1.943.103 1.47.723 5.146.723 5.198-.878-.052-2.014-1.05-2.427-1.627-.465-.63-1.084-1.943-1.188-2.94-.258.052-.103 0-.258.157l-1.394 1.89c-.516.788-1.033 1.575-1.446 2.416l-.206.262c-.052.105-.104.263-.155.368l-.981 2.152c-.413 1.05-.671 2.048-.878 3.361-.465 2.993.465 5.828 2.065 8.191l1.91 2.258c2.118 1.785 2.221 1.996 4.803 3.57.31.21 1.084.683 1.394.736-.516-.998-2.788-3.256-1.91-6.249.413-1.47 1.187-2.31 2.065-3.308.206-.21.361-.315.516-.577.31-.42.568-.893.826-1.313 1.033-1.89 1.601-5.146 1.601-7.351 1.24 1.47 2.22 3.203 2.891 5.04.362.998.569 2.048.672 3.256.155 1.208-.258 2.416-.517 3.518 1.085-.262 2.014-1.47 2.427-2.468.155-.367.207-.997.517-1.207.154.787 1.032 2.31 1.084 4.043v1.523c-.052 1.312-.516 2.993-1.084 3.99-.155.263-.517.84-.568 1.103l.103.21z" fill="url(#paint0_linear_35_467)"/><defs><linearGradient id="paint0_linear_35_467" x1="5.345" y1="35.968" x2="30.304" y2="-19.802" gradientUnits="userSpaceOnUse"><stop stop-color="#F98E30"/><stop offset="1" stop-color="red"/></linearGradient></defs></svg>