<svg width="25" height="25" fill="none" xmlns="http://www.w3.org/2000/svg"><g clip-path="url(#clip0_62_516)"><path fill-rule="evenodd" clip-rule="evenodd" d="M16.837 6.104c0-.928.405-1.701 1.238-2.082 1.868-.869 3.76 1.035 2.903 2.903-.5 1.071-1.785 1.547-2.903 1.024-.702-.322-1.238-1.107-1.238-1.845zM16.552 0h.761c.56.024 1.119.119 1.713.262.655.166.822.262 1.393.511 1.416.62 2.748 1.892 3.51 3.225.06.107.119.202.179.31.19.345.547 1.285.642 1.701.143.571.226 1.119.25 1.666v.75a8.304 8.304 0 01-.25 1.665 7.83 7.83 0 01-.845 2.035c-.214.357-.512.81-.785 1.119-.107.107-.12.154-.214.273-1.31 1.416-3.427 2.547-5.51 2.547-1.63 0-1.416-.048-2.88-.393l-1.641 1.63c-.714.548-.214.417-2.07.417v1.368c0 .452-.358.738-.631.738-1.357 0-1.31-.524-1.369.738-.024.642-.035 1.297-.88 1.368-.488.036-.857.095-1.369.095 0 1.547.488 1.143-.642 2.285-.262.262-.548.69-1.012.69H.654c-.297 0-.63-.333-.63-.63v-4.25c0-.404.238-.547.452-.773 1.035-1.035 8.555-8.627 8.829-8.805-.286-1.25-.393-1.238-.393-2.69 0-2.046.976-4.129 2.309-5.45l.773-.701c.107-.072.179-.12.286-.203a6.23 6.23 0 01.595-.38 7.708 7.708 0 012.058-.87A8.321 8.321 0 0116.587 0h-.035z" fill="#34A343"/></g><defs><clipPath id="clip0_62_516"><path fill="#fff" d="M0 0h25v25H0z"/></clipPath></defs></svg>