<svg width="45" height="25" fill="none" xmlns="http://www.w3.org/2000/svg"><g fill-rule="evenodd" clip-rule="evenodd" fill="#fff" clip-path="url(#clip0_35_438)"><path d="M12.671 23.275v1.723h18.88c0-2.239.212-3.807-.748-5.806-.594-1.243-1.427-2.196-2.515-3.002-2.507-1.85-5.297-1.455-8.285-1.455-1.151 0-2.26.523-3.094.876-1.186.502-2.345 1.759-3.08 2.868-.833 1.264-1.158 3.143-1.158 4.789v.007zm9.394-10.433c2.5 0 4.45-1.462 5.517-3.616 1.907-3.87-.749-9.224-5.517-9.224-2.33 0-4.633 1.688-5.48 3.828-.58 1.47-.728 3.037-.234 4.556.353 1.087.678 1.61 1.427 2.458 1.08 1.229 2.529 2.006 4.287 2.006v-.008zM0 19.997v3.709h10.171c0-2.62.092-4.182 1.462-6.47.212-.346.381-.608.622-.933.127-.169.204-.268.353-.423.19-.205.212-.276.388-.474.424-.48 1.582-1.292 1.745-1.532-2.352-1.575-4.422-1.293-7.24-1.293-1.052 0-2.239.367-2.988.72-1.06.488-1.871 1.138-2.592 1.971-1.06 1.222-1.914 2.98-1.914 4.719L0 19.997zm29.482-6.117c.162.22.706.516.967.757 2.755 2.45 3.687 5.1 3.687 9.069h10.002V20.3c-.092-1.766-.466-3.411-1.83-4.937-.798-.89-1.476-1.49-2.62-2.034-1.999-.954-3.715-.749-5.89-.749-1.265 0-3.78.565-4.31 1.293l-.006.007z"/><path d="M3.878 6.034c0 1.808.318 3.072 1.525 4.336 3.285 3.44 8.992 1.046 8.992-3.99 0-4.733-5.53-7.36-8.9-3.991-.741.742-1.61 2.204-1.61 3.645h-.007zm25.858.346c0 4.81 5.453 7.515 8.942 4.033 2.119-2.112 2.133-5.65 0-7.975-.671-.727-2.218-1.575-3.602-1.575-2.967 0-5.347 2.55-5.347 5.517h.007z"/></g><defs><clipPath id="clip0_35_438"><path fill="#fff" d="M0 0h44.138v25H0z"/></clipPath></defs></svg>