<svg width="27" height="25" fill="none" xmlns="http://www.w3.org/2000/svg"><path d="M6.357 12.653c0-.537.071-.987.513-1.365.67-.566 1.583-.522 2.183.087.584.596.584 1.655 0 2.236-.271.276-.557.436-1.07.48-.414.043-.87-.204-1.113-.407-.228-.189-.513-.654-.513-1.06v.029zm19.67-.305v.29c-.058.421-.372.828-.928.944-.485.087-12.851.03-13.636.03-.028.275-.356.885-.485 1.073-.5.697-.97 1.06-1.74 1.38-.956.392-2.31.29-3.167-.29-.627-.422-.955-.727-1.326-1.394-.285-.494-.171-.392-.342-.77H1.907c-.443 0-.742-.058-.999-.261a1.048 1.048 0 01-.4-.755v-.203c.03-.29.158-.567.4-.755.257-.204.542-.262.999-.262h2.496c.085-.174.128-.392.228-.58a4.052 4.052 0 011.027-1.292c.128-.102.328-.233.47-.334 1.227-.784 3.01-.596 4.108.305.457.377 1.199 1.306 1.241 1.887.87 0 13.137-.073 13.68.043.541.117.84.508.898.93l-.029.014zM16.983 3.87c0-.944.77-1.626 1.398-1.626h.342c.67 0 1.398.74 1.398 1.422v.262c0 .827-.713 1.524-1.597 1.524-.828 0-1.54-.74-1.54-1.568V3.87zm9.029-.117v.19c-.029.319-.186.623-.442.783-.314.203-.485.203-.999.203h-2.439c-.37.784-.385 1.147-1.226 1.844-.828.683-1.427.842-2.568.842-1.326 0-2.539-.987-3.124-2.163-.1-.189-.128-.363-.228-.537H3.304c-.87 0-2.838.334-2.838-1.016 0-1.525 1.555-1.176 2.895-1.176h11.625c.186-.363.114-.48.528-1.09 1.17-1.741 3.609-2.22 5.363-.798.514.407 1.084 1.234 1.241 1.888h2.44c.484 0 .755-.015 1.04.217.257.218.385.494.414.784v.03zM16.983 21.19c0-1.496 1.755-2.106 2.639-1.206 1.155 1.176.171 2.788-.884 2.788-.571 0-.856-.029-1.313-.494a1.516 1.516 0 01-.442-1.074v-.015zm9.029-.117v.19a1.117 1.117 0 01-.442.812c-.285.218-.528.189-1.013.189h-2.439c-.071.305-.342.87-.513 1.103-1.969 2.642-5.32 1.8-6.405-.552-.085-.203-.114-.362-.214-.537H1.364c-.599-.072-.898-.58-.898-1.074 0-.508.314-1.016.955-1.089h13.565c.086-.174.129-.348.228-.537.343-.697.514-.813.985-1.277.599-.61 1.569-.872 2.538-.872.913 0 2.04.567 2.582 1.234.614.74.5.799.813 1.452h2.44c.513 0 .713 0 1.026.218.243.174.4.465.414.77v-.03z" fill-rule="evenodd" clip-rule="evenodd" fill="#fff"/></svg>