<svg width="18" height="20" fill="none" xmlns="http://www.w3.org/2000/svg"><path fill-rule="evenodd" clip-rule="evenodd" d="M11.735 17.031V8.984c0-.928 1.171-.928 1.171 0v7.968c0 .966-1.171.857-1.171.08zm-3.516 0V8.906c0-.779 1.172-.888 1.172.078v7.968c0 .966-1.172.857-1.172.08zm-3.515 0V8.906c0-.779 1.171-.888 1.171.078v7.968c0 .966-1.171.857-1.171.08zM3.884 20h9.842c.532 0 1.014-.354 1.257-.657.294-.368.407-.898.423-1.531.007-.274.065-.6.078-.86l.284-3.582c.037-.274.04-.59.073-.903l.463-5.358h-15l.157 1.757c.019.574.139 1.224.157 1.798l.146 1.768c.04.309.027.6.072.904.044.305.028.6.072.905l.296 3.572c.016.622.123 1.135.406 1.508.24.317.74.679 1.274.679zM7.36 1.171h2.89c.685 0 .635.703.86 1.172H6.5c.225-.469.175-1.172.86-1.172zM5.25 2.343c-1.144 0-2.292.006-3.437-.001-.572-.004-.951.187-1.24.479-.182.182-.248.236-.375.484C-.08 3.847.016 4.64.016 5.39c0 .29.293.468.586.468h16.484c.24 0 .507-.268.507-.508 0-1.216.171-1.795-.556-2.53-.295-.297-.654-.481-1.24-.478-1.145.007-2.293.001-3.438.001-.075-.324-.4-1.28-.57-1.54C11.514.383 10.996 0 10.444 0h-3.28c-.535 0-1.062.377-1.33.78-.182.278-.503 1.21-.585 1.564l.002-.001z" fill="#F63"/></svg>