<svg width="29" height="25" fill="none" xmlns="http://www.w3.org/2000/svg"><g clip-path="url(#clip0_35_790)" fill-rule="evenodd" clip-rule="evenodd" fill="#34A343"><path d="M19.057 16.308c0-1.185.156-1.622.986-2.467.504-.511 1.252-.763 2.245-.763h5.016v5.905h-5.572c-.711 0-1.452-.474-1.823-.852-.377-.378-.852-1.111-.852-1.823zm-1.222-.555c0 1.43.274 2.304 1.215 3.245.585.593 1.593 1.215 2.741 1.215h3.18v2.846c0 .474-.253.726-.727.726H3.127c-.667 0-1.245-.304-1.541-.69-.43-.57-.356-.94-.356-1.874V7.795c1.097.578 1.074.556 2.504.556 6.72 0 13.575.044 20.28 0 .349 0 .949-.015.949.615v2.897c-2.105 0-4.372-.29-5.758 1.096-.726.726-1.378 1.645-1.378 2.801l.008-.007zM17.057 1.43c.044.2.644 1.149.8 1.43l2.49 4.253H7.587l7.091-4.275c.415-.252.763-.46 1.186-.711.415-.252.778-.482 1.193-.697zm2.675 2.171c.333 0 .792-.03 1.118 0 .86.074.556 1.578.556 2.845-.133-.096-1.274-2.09-1.467-2.437l-.207-.408zM5.075 7.113H2.956c-.904 0-1.726-.822-1.726-1.563s.104-1.215.77-1.682c.675-.474 2.201-.267 3.298-.267h5.683c-.096.133-.519.356-.704.467L6.617 6.26c-.267.156-.467.282-.734.437-.185.111-.615.415-.815.415h.007zM.007 5.105v17.05c0 1.23.92 2.245 1.934 2.637.37.141.852.208 1.356.208H24.14c1.297 0 2.06-.763 2.06-2.06v-2.734h1.786a.55.55 0 00.556-.556v-7.246c0-.771-1.438-.556-2.342-.556V9.173c0-1.156-.711-2.06-1.786-2.06H22.63V4.327c0-.889-.408-1.46-1.023-1.763-.6-.297-1.912-.186-2.66-.186L17.842.415c-.526-.86-1.09-.245-2.415.556L13.27 2.267c-.237.141-.237.111-.614.104H2.903c-.889-.007-1.489.385-1.985.808C.474 3.557.007 4.46.007 5.105z"/><path d="M21.399 16.034c0-.681 1.17-.733 1.17-.059 0 .185-.037.326-.125.437-.386.467-1.045.126-1.045-.378zm2.393.06c0-1.905-2.556-2.609-3.438-.764-.697 1.46.874 3.038 2.327 2.379.57-.26 1.111-.8 1.111-1.615z"/></g><defs><clipPath id="clip0_35_790"><path fill="#fff" d="M0 0h28.527v25H0z"/></clipPath></defs></svg>