<svg width="30" height="30" fill="none" xmlns="http://www.w3.org/2000/svg"><g fill-rule="evenodd" clip-rule="evenodd" fill="#34A343" clip-path="url(#clip0_45_126)"><path d="M0 1.239v25.078c0 1.306 1.607 1.306 2.813 1.54 1.171.235 2.477.502 3.649.737a114.6 114.6 0 013.616.736c.603.134 1.172.235 1.808.369.502.1 1.473.334 1.942.334.603 0 1.172-.569 1.172-1.171v-1.273h5.96c.469 0 .803-.1 1.038-.301.2-.167.468-.502.468-.87v-7.735c0-1.44-2.51-1.64-2.51.168v6.16h-4.99V4.99c0-1.139-1.372-1.272-2.176-1.507l-2.477-.736c-.1-.034-.1-.034-.168-.067l9.81-.067v6.26c0 .637.57 1.24 1.306 1.24.603 0 1.239-.536 1.239-1.172V1.272C22.5.67 21.93.1 21.328.1H1.238C.604.1 0 .67 0 1.34v-.101z"/><path d="M23.705 9.944c0 1.038 1.34 1.64 1.942 2.511h-7.031c-1.507.168-1.473 2.31-.1 2.512.401.066 6.395 0 7.131 0-.468.736-1.942 1.506-1.942 2.51 0 .67.536 1.24 1.34 1.24.636 0 1.104-.67 1.44-1.005l2.444-2.444c.569-.57 1.004-.77 1.004-1.64 0-.603-.67-1.106-1.005-1.44l-2.444-2.445c-.435-.435-.803-1.004-1.573-1.004-.637 0-1.24.603-1.24 1.239l.034-.034z"/></g><defs><clipPath id="clip0_45_126"><path fill="#fff" d="M0 0h30v30H0z"/></clipPath></defs></svg>