<svg width="21" height="20" fill="none" xmlns="http://www.w3.org/2000/svg"><g clip-path="url(#clip0_35_846)" fill-rule="evenodd" clip-rule="evenodd" fill="#34A343"><path d="M1 5.68v12.01c0 .606.342 1.227.654 1.536.093.092.182.194.278.27.285.226.782.503 1.18.503h12.52c.42 0 1.136-.439 1.437-.794.323-.382.637-.943.637-1.631v-6.73c0-.419-.36-.821-.782-.821-1.105 0-.9 1.047-.9 1.76v4.93c0 .524.134 1.644-.821 1.644H3.466c-.406 0-.783-.378-.783-.783V5.877c0-.988 1.026-.86 1.604-.86h5.007c.375 0 .898.066 1.2-.054.85-.337.607-1.63-.3-1.63h-6.73a2.51 2.51 0 00-1.692.695c-.35.35-.772.975-.772 1.654V5.68z"/><path d="M8.12 12.488c0 .696.777.365 1.296.28l1.761-.353c.48-.079.461-.058.747-.347.398-.4 6.312-6.265 6.446-6.466l-2.925-2.944c-.233.16-5.936 5.917-6.435 6.416-.288.288-.283.23-.372.685-.063.322-.117.587-.182.912-.074.37-.336 1.543-.336 1.817zm8.178-10.72l2.944 2.964 1.076-1.057c.406-.406.658-.88.714-1.384v-.429a2.18 2.18 0 00-.195-.682 2.08 2.08 0 00-.18-.29c-.75-1.073-2.24-1.226-3.274-.19l-1.086 1.066.001.002z"/></g><defs><clipPath id="clip0_35_846"><path fill="#fff" d="M0 0h20.032v20H0z"/></clipPath></defs></svg>