<svg width="29" height="35" fill="none" xmlns="http://www.w3.org/2000/svg"><path fill-rule="evenodd" clip-rule="evenodd" d="M6.47 15.348c0-.68.062-1.299.37-1.979.124-.185.186-.37.372-.556.247-.371.556-.619.927-.928 2.04-1.36 4.7-.556 5.689 1.484a4.225 4.225 0 010 3.463c-.186.309-.495.865-.804 1.113-1.237 1.05-2.597 1.36-4.205.741a2.823 2.823 0 01-.989-.68l-.124-.123a5.143 5.143 0 01-.803-1.113c-.186-.371-.371-.928-.371-1.484l-.062.062zm-5.503-.31c0 1.299.124 1.794.556 3.03.804 2.412 2.845 5.812 4.329 7.976l.432.68c.557.804 1.855 2.721 2.412 3.401l.185.186c.68.618 1.793.68 2.597.185.186-.124.371-.247.495-.433 1.298-1.67 2.906-4.08 4.019-5.874.68-1.113 1.916-3.215 2.411-4.451.495-1.237 1.237-2.845 1.237-4.205 0-1.731-.248-2.659-.866-4.204-.186-.371-.618-1.051-.804-1.422-.618-.866-1.36-1.608-2.226-2.288-.123-.062-.185-.124-.309-.247-.123-.062-.185-.124-.37-.248-1.237-.742-2.907-1.298-4.453-1.298-1.483 0-2.102.062-3.462.556a8.924 8.924 0 00-2.288 1.175c-.865.618-1.607 1.36-2.287 2.226a8.757 8.757 0 00-1.423 3.091c-.123.619-.309 1.299-.309 1.98l.124.185z" fill="#fff"/></svg>