<svg width="34" height="35" fill="none" xmlns="http://www.w3.org/2000/svg"><path d="M16.75 10.336c-1.393 0-2.539.603-3.474 1.81l-1.922-2.183c.529-.87 1.287-1.562 2.275-2.094.988-.533 2.099-.799 3.298-.799 1.835 0 3.281.48 4.304 1.438 1.076.94 1.605 2.13 1.605 3.55 0 1.242-.247 2.253-.74 3.017-.494.763-1.182 1.508-2.064 2.218-.106.089-.265.213-.441.373-.177.142-.318.266-.424.355a5.44 5.44 0 00-.388.355 3.269 3.269 0 00-.352.355c-.071.088-.177.213-.3.372-.124.16-.194.302-.247.409-.035.106-.088.266-.159.461a.894.894 0 00-.053.515c.035.16.035.337.035.568l-2.963.035c-.106-.692-.123-1.313-.018-1.863a3.27 3.27 0 01.706-1.474c.37-.443.67-.763.9-.958.229-.195.617-.497 1.146-.887 1.235-.87 1.852-1.917 1.852-3.124 0-.675-.247-1.26-.758-1.722-.512-.479-1.13-.71-1.888-.71l.07-.017zM14.194 25.12c0-.55.212-1.03.635-1.455.424-.426.953-.64 1.588-.64.582 0 1.076.214 1.481.64.406.426.6.905.6 1.455 0 .621-.194 1.154-.6 1.598-.388.443-.9.674-1.499.674-.635 0-1.164-.23-1.587-.674a2.232 2.232 0 01-.635-1.598h.017z" fill="#9F9E9E"/><path d="M17.121 33.444c8.904 0 16.122-7.263 16.122-16.222C33.243 8.262 26.025 1 17.12 1 8.218 1 1 8.263 1 17.222c0 8.96 7.218 16.222 16.121 16.222z" stroke="#9F9E9E" stroke-width="1.335" stroke-miterlimit="22.926"/></svg>