<svg width="35" height="35" fill="none" xmlns="http://www.w3.org/2000/svg"><g clip-path="url(#clip0_45_281)" fill-rule="evenodd" clip-rule="evenodd" fill="#4D4D4D"><path d="M13.745 26.082v-8.085h4.874c.925 0 1.802-.416 2.472-.948.139-.115.185-.115.3-.254.278-.254.67-.831.855-1.178.208-.37.416-1.04.416-1.594h7.254c1.779 0 3.072 1.017 3.072 2.587v9.495c0 .832-.508 1.594-.97 1.964-1.57 1.2-2.864.115-3.511.97-.485.647.07 2.841-.254 4.274-.347 0-.3.046-.509-.116-.508-.416-4.042-4.158-4.412-4.39-.277-.184-.878-.115-1.294-.115-1.732 0-3.719.093-5.428 0-1.64-.092-2.865-1.062-2.865-2.587v-.023zM1.755 13.746V4.413a2.9 2.9 0 01.67-1.825c.324-.37 1.063-.808 1.756-.808h14.37c1.316 0 2.448 1.224 2.448 2.656v9.333c0 1.132-.878 2.125-1.756 2.426-.9.3-4.735.161-6.19.161-2.126 0-1.456-.115-3.951 2.38-.693.693-1.386 1.432-2.102 2.102-.763.693-.578-.785-.578-1.132v-2.171c0-.717-.208-1.179-.9-1.179-.81-.023-1.294.07-1.941-.138-.901-.277-1.825-1.248-1.825-2.426v-.046zM.024 4.76v8.57c0 1.502.44 2.38 1.109 3.211.485.6 1.825 1.456 2.865 1.456h.693v2.518c0 1.894 2.079 3.003 3.673 1.386l3.65-3.604c0 1.455-.07 7.161.046 8.108.138 1.017.554 2.126 1.34 2.772.854.694 1.617 1.202 2.934 1.179h6.052c.277.046.393.277.577.462.74.739 1.895 1.986 2.588 2.564.97.809 1.317 1.64 2.472 1.64 1.178 0 2.033-.97 2.033-2.171v-2.518c2.056 0 3.603-.948 4.366-2.819.208-.508.3-1.247.3-1.917v-8.501c0-.67-.092-1.386-.277-1.871a3.844 3.844 0 00-.37-.763c-.6-1.04-2.033-2.102-3.465-2.102h-7.878v-7.6c0-1.479-.438-2.588-1.2-3.327-.393-.393-.74-.716-1.271-.97a4.467 4.467 0 00-1.872-.44H4.298c-1.363 0-2.264.555-3.119 1.41-.762.74-1.201 1.848-1.201 3.327h.046z"/><path d="M8.64 6.077c0 .554.277.9.831.9.324 0 .555-.438.74-.646.831-.948 3.372-.07 1.501 1.57-.693.624-1.409.925-1.409 2.495 0 1.225 1.27.832 1.432.601.324-.416-.3-1.04.878-1.987 2.68-2.125 1.363-4.62-1.409-4.62-1.224 0-2.587.762-2.587 1.663l.023.024zm13.468 15.269c0 1.664 2.518 1.664 2.518 0 0-1.663-2.518-1.663-2.518 0zm5.152-.069c0 1.155 1.27 1.779 2.148.97 1.155-1.062-.555-2.98-1.733-1.802-.162.162-.416.555-.416.832zm-10.327 0c0 1.386 1.432 1.663 2.148.947.463-.462.486-1.224-.023-1.756-.808-.854-2.125-.184-2.125.809zm-6.745-8.594c0 1.248 1.801 1.132 1.801.07 0-.647-.6-.97-.9-.97-.416 0-.901.485-.901.9z"/></g><defs><clipPath id="clip0_45_281"><path fill="#fff" d="M0 0h34.721v35H0z"/></clipPath></defs></svg>