<svg width="30" height="30" fill="none" xmlns="http://www.w3.org/2000/svg"><g clip-path="url(#clip0_35_779)"><path d="M15 28.527c7.471 0 13.527-6.056 13.527-13.527 0-7.47-6.056-13.527-13.527-13.527C7.53 1.473 1.473 7.529 1.473 15c0 7.471 6.056 13.527 13.527 13.527z" stroke="#F63" stroke-width="1.333" stroke-miterlimit="22.926"/><path d="M16.125 24.498h-2.28V11.682h2.28v12.816zM13.56 6.868c0-.398.142-.726.427-.981.285-.257.637-.385 1.054-.385.399 0 .73.128.997.385.265.256.399.583.399.982 0 .437-.133.793-.399 1.068a1.33 1.33 0 01-.997.412 1.46 1.46 0 01-1.054-.412c-.285-.275-.427-.632-.427-1.068z" fill="#F63"/></g><defs><clipPath id="clip0_35_779"><path fill="#fff" d="M0 0h30v30H0z"/></clipPath></defs></svg>