<svg width="26" height="25" fill="none" xmlns="http://www.w3.org/2000/svg"><path d="M5.891 12.653c0-.537.071-.987.514-1.365.67-.566 1.583-.522 2.182.087.585.596.585 1.655 0 2.236-.271.276-.556.436-1.07.48-.414.043-.87-.204-1.112-.407-.229-.19-.514-.654-.514-1.06v.029zm19.67-.305v.29c-.057.421-.371.828-.927.944-.486.087-12.852.03-13.637.03-.028.275-.356.885-.485 1.073-.499.697-.97 1.06-1.74 1.38-.955.392-2.31.29-3.166-.29-.628-.422-.956-.727-1.327-1.395-.285-.493-.17-.391-.342-.769H1.44c-.442 0-.742-.058-.999-.261a1.048 1.048 0 01-.399-.755v-.203c.028-.29.157-.567.4-.755.256-.204.541-.262.998-.262h2.496c.086-.174.128-.392.228-.58a4.052 4.052 0 011.027-1.293c.129-.101.328-.232.47-.333 1.228-.784 3.01-.596 4.109.304.456.378 1.198 1.307 1.24 1.888.87 0 13.137-.073 13.68.043.542.117.841.508.898.93l-.028.014zM16.517 3.87c0-.944.77-1.626 1.398-1.626h.343c.67 0 1.397.74 1.397 1.422v.262c0 .827-.713 1.524-1.597 1.524-.828 0-1.54-.74-1.54-1.568V3.87zm9.03-.117v.19c-.03.319-.186.623-.443.783-.314.203-.485.203-.998.203h-2.44c-.37.784-.385 1.147-1.226 1.844-.828.683-1.427.842-2.568.842-1.326 0-2.539-.987-3.123-2.163-.1-.189-.129-.363-.229-.537H2.838C1.968 4.915 0 5.249 0 3.899c0-1.525 1.555-1.176 2.896-1.176H14.52c.186-.363.114-.48.528-1.09 1.17-1.741 3.609-2.22 5.363-.798.514.407 1.084 1.234 1.241 1.888h2.44c.484 0 .755-.015 1.04.217.257.218.386.494.414.784v.03zm-9.03 17.437c0-1.496 1.755-2.106 2.64-1.206 1.154 1.176.17 2.788-.885 2.788-.57 0-.856-.03-1.313-.494a1.516 1.516 0 01-.442-1.074v-.015zm9.03-.117v.19a1.118 1.118 0 01-.443.812c-.285.218-.528.189-1.013.189h-2.439c-.071.305-.342.87-.513 1.103-1.969 2.642-5.32 1.8-6.405-.552-.085-.203-.114-.363-.214-.537H.9c-.6-.072-.899-.58-.899-1.074 0-.508.314-1.016.956-1.089H14.52c.086-.174.129-.348.229-.537.342-.697.513-.813.984-1.278.599-.61 1.569-.87 2.539-.87.913 0 2.04.566 2.581 1.233.614.74.5.799.813 1.452h2.44c.513 0 .713 0 1.026.218.243.174.4.465.414.77v-.03z" fill-rule="evenodd" clip-rule="evenodd" fill="#4D4D4D"/></svg>