<svg width="22" height="25" fill="none" xmlns="http://www.w3.org/2000/svg"><path fill-rule="evenodd" clip-rule="evenodd" d="M10.71.026h.373a9.11 9.11 0 011.96.261c.913.229 2.056.732 2.807 1.293 2.24 1.666 3.605 4.037 3.605 6.982 1.26.026 2.39 1.182 2.39 2.684v4.735c0 .803-.306 1.424-.685 1.855-.483.548-1.065.679-1.705.83 0 3.84-2.436 5.12-5.753 5.12v.339c0 .437-.438.875-.876.875H9.705a.963.963 0 01-.692-.333c-.131-.163-.236-.457-.236-.745 0-1.064-.215-2.39 1.071-2.39h2.88c.268 0 .569.163.712.314.281.3.268.535.268.953 1.058 0 2.717-.255 3.5-.895.425-.346.739-.731.935-1.26.228-.607.346-1.24.346-1.992-.575 0-1.078.098-1.267-.196a.822.822 0 01-.098-.392V9.137c0-.764.666-.634 1.365-.634 0-.784-.059-1.267-.274-2.024-.412-1.457-1.359-2.978-2.567-3.873-.627-.464-.934-.686-1.698-1.032-1.365-.607-3.22-.797-4.683-.438a8.441 8.441 0 00-1.397.458c-.732.34-1.933 1.077-2.43 1.717-.163.21-.307.314-.627.738-.953 1.267-1.45 2.854-1.45 4.454.7 0 1.365-.13 1.365.634v8.927c0 .777-.698.634-1.463.634C1.352 18.698 0 17.92 0 15.87v-4.637c0-1 .385-1.646 1.012-2.162.124-.098.255-.163.399-.241.26-.137.62-.275.98-.288v-.49c0-1.495.776-3.415 1.619-4.532.718-.953 1.384-1.574 2.377-2.214C7.687.464 9.195.033 10.73 0l-.02.026z" fill="#F63"/></svg>