<svg width="23" height="25" fill="none" xmlns="http://www.w3.org/2000/svg"><path fill-rule="evenodd" clip-rule="evenodd" d="M18.01 9.758V23.59c0 .63.674 1.392 1.502 1.392 1.021 0 1.796.15 2.422-.42.19-.173.473-.621.473-.972V9.867c0-.828-.816-1.502-1.45-1.502h-1.502c-.686 0-1.449.715-1.449 1.393h.004zm-12.007 4.61v9.221c0 .63.675 1.393 1.502 1.393 1.022 0 1.797.15 2.423-.42.19-.173.472-.621.472-.973v-9.22c0-.659-.735-1.393-1.393-1.393H7.4c-.658 0-1.393.734-1.393 1.392h-.004zM18.6 1.558c0 .51.133.562.214.913-.19.129-.327.299-.497.468l-1.179 1.235c-.109.122-.12.17-.242.295L14.95 6.492c-.509-.117-.896-.343-1.586.073-.42.254-.376.383-.558.516-.218-.052-.432-.125-.666-.194l-2.095-.585c-.351-.1-.202-.15-.315-.545-.254-.912-1.643-1.66-2.648-.65-.751.755-.473 1.268-.335 1.865-.174.117-.283.267-.44.416l-3.259 2.96c-.298-.07-.444-.215-.855-.215-1.466 0-2.116 1.777-1.143 2.75.993.997 2.75.307 2.75-1.143 0-.327-.102-.492-.162-.75.113-.077.121-.106.23-.199l3.468-3.177c.977.517 2.05.012 2.196-.537.864.202 2.108.638 3.056.86 0 2.1 3.218 2.132 3.218 0 0-.412-.145-.561-.214-.86.254-.17 3.759-4.02 3.86-4.02.218 0 .452.16.698.16.913 0 1.663-.694 1.663-1.663 0-.77-.702-1.554-1.449-1.554h-.323c-.747 0-1.45.783-1.45 1.554l.009.004zm-6.593 14.688v7.344c0 .63.674 1.392 1.502 1.392 1.021 0 1.796.15 2.422-.42.19-.173.472-.621.472-.973v-7.343c0-.416-.266-.796-.492-1.005-.614-.57-1.38-.44-2.293-.44-.828 0-1.607.702-1.607 1.449l-.004-.004zM0 19.302v4.287c0 .703.771 1.393 1.502 1.393 1.021 0 1.796.15 2.422-.42.19-.173.473-.621.473-.973v-4.287c0-.408-.291-.828-.521-1.034-.59-.52-1.312-.416-2.16-.416-1.001 0-1.716.74-1.716 1.45z" fill="#F63"/></svg>