<svg width="35" height="35" fill="none" xmlns="http://www.w3.org/2000/svg"><g clip-path="url(#clip0_35_421)"><path fill-rule="evenodd" clip-rule="evenodd" d="M16.738 21.044c2.178 0 3.082-.017 5.194.686 1.558.52 2.446 1.04 3.719 1.894l.955.754c.586.52 1.156 1.072 1.659 1.692.117.15.167.184.284.335.336.436.62.888.922 1.34l-1.039 1.073c-2.647 2.664-6.87 4.39-10.639 4.39-2.128 0-4.02-.285-5.88-1.023-1.66-.67-2.698-1.223-4.139-2.362a5.087 5.087 0 01-.553-.47L6.1 28.299c-.201-.2-.302-.419-.537-.57.302-.435.57-.87.905-1.29l1.039-1.223c1.491-1.508 3.468-2.78 5.495-3.451 1.023-.335 2.463-.72 3.787-.72h-.05zm-4.44-6.635c0-1.24-.034-1.659.553-2.798 1.575-3.167 5.88-3.77 8.26-1.424 1.29 1.273 1.591 2.379 1.591 4.222 0 .955-.57 2.262-1.206 2.949-1.29 1.373-2.295 1.826-4.323 1.826-1.24 0-2.446-.654-3.317-1.475-.821-.753-1.541-2.178-1.541-3.317l-.017.017zm-1.843-.486c0 1.625.703 3.619 1.826 4.742l.553.552c.117.118.167.151.285.252l.335.268c-.888.2-2.061.653-2.798 1.022-1.24.603-3.502 2.11-4.524 3.267-.184.2-.234.302-.452.503l-.855 1.055c-.167.218-.251.436-.452.57C1.44 21.78.905 15.85 3.183 10.957c.788-1.709 1.09-2.077 2.212-3.535.704-.904 1.575-1.658 2.463-2.379.2-.167.335-.251.553-.402 1.005-.737 2.647-1.592 3.82-1.977 4.054-1.357 7.941-1.206 11.812.536 5.344 2.396 9.164 8.026 9.164 14.007 0 3.686-1.005 6.584-2.597 8.947-.2-.134-.586-.771-.837-1.073-.1-.117-.118-.134-.218-.25-1.29-1.66-3.318-3.117-5.177-4.055-.453-.218-.888-.386-1.34-.57a13.225 13.225 0 00-1.509-.486c.05-.034.034-.034.118-.1l.452-.37c.52-.502 1.156-1.155 1.491-1.792 1.123-2.161 1.274-4.004.352-6.3-.184-.469-.67-1.273-1.022-1.641-1.29-1.425-2.899-2.58-5.412-2.58-2.496 0-4.54 1.306-5.73 2.948l-.653 1.123c-.318.754-.67 1.86-.67 2.898v.017zM0 16.939c0 2.597.168 4.038 1.005 6.45.486 1.39 1.357 3.05 2.178 4.189 1.894 2.63 4.005 4.356 6.87 5.763 1.625.805 4.423 1.642 6.835 1.642 2.63 0 4.072-.15 6.518-1.005 3.451-1.206 6.25-3.468 8.394-6.367 1.776-2.396 3.2-6.199 3.2-9.516 0-3.15-.369-5.429-1.608-8.026-1.894-3.937-4.574-6.5-8.428-8.444-1.843-.938-4.741-1.642-6.836-1.642-2.63 0-4.071.151-6.517 1.006-.486.167-1.056.402-1.508.62L8.076 2.73c-2.865 1.709-4.96 4.406-6.45 7.355C.685 11.946 0 14.844 0 16.94z" fill="#fff"/></g><defs><clipPath id="clip0_35_421"><path fill="#fff" d="M0 0h35v35H0z"/></clipPath></defs></svg>