<svg width="50" height="50" fill="none" xmlns="http://www.w3.org/2000/svg"><g clip-path="url(#clip0_35_768)"><path fill-rule="evenodd" clip-rule="evenodd" d="M23.926 30.078c3.1 0 4.398-.02 7.41.99 2.238.745 3.497 1.497 5.307 2.7l1.372 1.071c.846.752 1.66 1.529 2.362 2.425.17.212.238.263.407.47.483.613.884 1.277 1.31 1.91l-1.491 1.541c-3.778 3.816-9.824 6.278-15.211 6.278-3.039 0-5.745-.401-8.402-1.466-2.374-.946-3.852-1.742-5.914-3.364-.307-.239-.526-.408-.802-.665l-1.61-1.51c-.282-.281-.438-.595-.758-.808.426-.632.802-1.246 1.285-1.841l1.472-1.748c2.136-2.162 4.955-3.985 7.85-4.943 1.466-.483 3.527-1.04 5.406-1.04h.007zm-6.347-9.473c0-1.767-.037-2.368.783-4.003 2.262-4.517 8.395-5.388 11.797-2.03 1.836 1.81 2.268 3.402 2.268 6.033 0 1.378-.802 3.24-1.73 4.223-1.847 1.96-3.276 2.612-6.176 2.612-1.773 0-3.49-.94-4.743-2.099-1.171-1.083-2.192-3.107-2.192-4.742l-.007.006zm-2.637-.683c0 2.33 1.002 5.175 2.612 6.766.288.282.495.495.783.784.176.181.226.225.414.363l.488.388c-1.278.301-2.931.934-4.003 1.466-1.767.871-5.018 3.014-6.465 4.668-.263.294-.338.432-.64.733l-1.22 1.51c-.233.306-.358.613-.659.808-4.19-6.253-4.955-14.73-1.691-21.715 1.14-2.43 1.554-2.975 3.157-5.049 1.009-1.297 2.25-2.38 3.527-3.402.289-.232.483-.363.784-.582C13.457 5.6 15.8 4.385 17.49 3.822c5.796-1.936 11.34-1.723 16.884.77 7.65 3.433 13.088 11.477 13.088 20.023 0 5.262-1.447 9.41-3.71 12.793-.281-.188-.826-1.097-1.202-1.535-.138-.163-.182-.182-.32-.364-1.841-2.361-4.748-4.46-7.398-5.788-.646-.32-1.26-.552-1.924-.815a16.226 16.226 0 00-2.148-.683c.069-.056.043-.037.156-.137l.652-.52c.745-.715 1.647-1.642 2.124-2.563 1.597-3.095 1.823-5.707.5-9.003-.275-.682-.964-1.804-1.453-2.355-1.835-2.042-4.135-3.684-7.737-3.684-3.565 0-6.484 1.855-8.175 4.223l-.934 1.604c-.464 1.07-.946 2.65-.946 4.128l-.006.006zM0 24.22c0 3.721.232 5.783 1.428 9.216.69 1.98 1.936 4.354 3.108 5.976 2.712 3.747 5.72 6.228 9.823 8.245C16.677 48.803 20.674 50 24.126 50c3.765 0 5.82-.207 9.316-1.428 4.93-1.717 8.927-4.956 11.99-9.103 2.532-3.427 4.574-8.859 4.574-13.589 0-4.51-.532-7.756-2.312-11.458C44.988 8.79 41.166 5.13 35.647 2.343 33.01 1.01 28.875 0 25.88 0c-3.765 0-5.82.207-9.316 1.428-.695.245-1.51.564-2.142.884l-2.895 1.597C7.424 6.36 4.436 10.2 2.312 14.422.972 17.078 0 21.212 0 24.22z" fill="#34A343"/></g><defs><clipPath id="clip0_35_768"><path fill="#fff" d="M0 0h50v50H0z"/></clipPath></defs></svg>