<svg width="25" height="25" viewBox="0 0 25 25" fill="none" xmlns="http://www.w3.org/2000/svg">
<g clip-path="url(#clip0_62_513)">
<path fill-rule="evenodd" clip-rule="evenodd" d="M6.8682 12.61C6.8682 11.8682 7.28028 11.3874 7.92589 11.3874H17.0742C18.4753 11.3874 18.4753 13.6264 17.0742 13.6264H7.92589C7.39018 13.6264 6.8682 13.1594 6.8682 12.61ZM4.57424 7.92589C4.57424 7.39018 5.02754 6.8682 5.59072 6.8682H19.4231C20.6869 6.8682 20.8929 9.10721 19.2171 9.10721H5.8105C5.09622 9.10721 4.58798 8.65391 4.58798 7.93963L4.57424 7.92589ZM6.43898e-05 5.63193V14.8902C6.43898e-05 16.8545 1.1127 18.5715 2.71984 19.6154C3.03578 19.8215 4.05226 20.3023 4.5193 20.316V23.6127C4.5193 24.3957 4.95886 25.0001 5.68688 25.0001C6.23633 25.0001 7.52754 23.9973 8.02204 23.6676L12.4314 20.7281C12.6649 20.577 12.6924 20.4671 13.077 20.4671C15.0275 20.4671 18.86 20.6045 20.3572 20.3435C20.5907 20.3023 20.9067 20.2198 21.1264 20.1512C21.5248 20.0138 22.0468 19.7528 22.3764 19.533C23.9561 18.4616 25.0001 16.8407 25.0001 14.7665V5.56325C25.0001 4.14842 24.2995 2.59622 23.338 1.63468C22.9259 1.22259 22.1979 0.741823 21.6622 0.49457C21.0715 0.206108 20.2061 -0.0136719 19.3545 -0.0136719H5.63193C2.58248 -0.0136719 -0.0136719 2.56875 -0.0136719 5.63193H6.43898e-05Z" fill="#34A343"/>
</g>
<defs>
<clipPath id="clip0_62_513">
<rect width="25" height="25" fill="white"/>
</clipPath>
</defs>
</svg>
