<svg width="25" height="25" viewBox="0 0 25 25" fill="none" xmlns="http://www.w3.org/2000/svg">
<g clip-path="url(#clip0_35_795)">
<path fill-rule="evenodd" clip-rule="evenodd" d="M25 9.26583V9.6262C24.9695 9.99878 24.8473 10.3592 24.6274 10.6584C24.3831 10.9883 22.8133 12.5153 22.453 12.8756C21.9521 13.3765 21.4879 13.8407 20.9871 14.3416C20.8405 14.4882 20.7916 14.5859 20.645 14.7325L19.173 16.1923C18.9836 16.3816 19.0386 16.4427 19.0447 16.7909V22.6484C19.0508 24.0349 18.0858 24.9939 16.9924 24.9939H2.05228C1.03225 24.9939 0 23.9616 0 22.9416V2.04618C0 1.02615 1.03225 -0.00610352 2.05228 -0.00610352H14.9401C15.8869 -0.00610352 16.5954 0.891771 17.1024 1.39873C17.8598 2.15612 18.8554 2.93184 19.0264 3.87247C19.0814 4.17176 19.0447 9.56512 19.0447 10.0049C19.2279 9.88273 20.9382 8.11752 21.4513 7.67775C22.2453 6.99976 23.528 7.05473 24.377 7.89764C24.7496 8.27022 24.9572 8.76497 25 9.26583ZM15.0867 17.139C15.0989 16.9985 15.4838 15.7769 15.5876 15.6365C15.6914 15.5021 15.8136 15.4349 15.9174 15.2822L16.9313 16.2717C16.687 16.6565 16.4732 16.6992 16.1312 16.8153C15.8686 16.9008 15.3249 17.1207 15.0867 17.139ZM17.9819 15.2455L16.9802 14.2194L20.4923 10.7317L21.494 11.709L17.9819 15.2455ZM13.1383 18.3118C13.1383 18.8248 13.407 19.0936 13.9201 19.0936C14.0789 19.0936 16.6748 18.2446 17.1696 18.0491C17.3467 17.9758 17.4261 17.9025 17.5788 17.8231C17.5788 18.6905 17.6277 22.0621 17.5788 22.7523C17.5421 23.2592 17.249 23.5341 16.6992 23.5341H2.34547C1.77132 23.5341 1.46592 23.2287 1.46592 22.6545V2.34547C1.46592 1.77132 1.77132 1.46592 2.34547 1.46592H13.181V5.22844C13.181 5.52774 13.517 5.86367 13.8163 5.86367H17.5727V11.4281C17.5727 11.7029 14.4271 14.3721 14.1583 15.0928C13.9873 15.5571 13.1261 18.1163 13.1261 18.3118H13.1383ZM22.5629 10.6462L21.5734 9.68117C21.775 9.38799 22.4346 8.69167 22.8072 8.69167C23.2775 8.69167 23.6685 9.19864 23.473 9.69949C23.3997 9.88884 22.7278 10.5363 22.5629 10.6462ZM14.6531 1.46592C15.27 1.47814 15.7464 2.14391 16.3267 2.72417C16.9069 3.30443 17.5727 3.77474 17.5849 4.39776H14.6531V1.46592Z" fill="#FF6633"/>
<path fill-rule="evenodd" clip-rule="evenodd" d="M2.93188 7.95872C2.93188 8.43514 3.1701 8.7894 3.56712 8.7894H14.0179C14.8608 8.7894 14.8608 7.32349 14.0179 7.32349H3.56712C3.26782 7.32349 2.93188 7.65943 2.93188 7.95872Z" fill="#FF6633"/>
<path fill-rule="evenodd" clip-rule="evenodd" d="M2.93188 10.8845C2.93188 11.3609 3.1701 11.7152 3.56712 11.7152H11.0861C11.929 11.7152 11.929 10.2493 11.0861 10.2493H3.56712C3.26782 10.2493 2.93188 10.5852 2.93188 10.8845Z" fill="#FF6633"/>
<path fill-rule="evenodd" clip-rule="evenodd" d="M2.93188 16.7481C2.93188 17.2246 3.1701 17.5788 3.56712 17.5788H11.0861C11.929 17.5788 11.929 16.1129 11.0861 16.1129H3.56712C3.26782 16.1129 2.93188 16.4489 2.93188 16.7481Z" fill="#FF6633"/>
<path fill-rule="evenodd" clip-rule="evenodd" d="M2.93188 13.8163C2.93188 14.2927 3.1701 14.6469 3.56712 14.6469H11.0861C11.929 14.6469 11.929 13.181 11.0861 13.181H3.56712C3.26782 13.181 2.93188 13.517 2.93188 13.8163Z" fill="#FF6633"/>
<path fill-rule="evenodd" clip-rule="evenodd" d="M8.78931 21.2375C8.78931 21.7139 9.02752 22.0682 9.42454 22.0682H14.0116C14.8545 22.0682 14.8545 20.6023 14.0116 20.6023H9.42454C9.12525 20.6023 8.78931 20.9382 8.78931 21.2375Z" fill="#FF6633"/>
</g>
<defs>
<clipPath id="clip0_35_795">
<rect width="25" height="25" fill="white"/>
</clipPath>
</defs>
</svg>
