<svg width="30" height="30" viewBox="0 0 30 30" fill="none" xmlns="http://www.w3.org/2000/svg">
<g id="&#208;&#178;&#209;&#139;&#208;&#185;&#209;&#130;&#208;&#184; &#208;&#183;&#208;&#181;&#208;&#187; 1" clip-path="url(#clip0_45_126)">
<g id="&#208;&#161;&#208;&#187;&#208;&#190;&#208;&#185;_x0020_1">
<g id="_1473966624">
<path id="Vector" fill-rule="evenodd" clip-rule="evenodd" d="M0 1.23886V26.317C0 27.6228 1.60714 27.6228 2.8125 27.8572C3.98437 28.0915 5.29018 28.3594 6.46205 28.5938C7.70089 28.8281 8.87277 29.0625 10.0781 29.3304C10.6808 29.4643 11.25 29.5647 11.8862 29.6987C12.3884 29.7991 13.3594 30.0335 13.8281 30.0335C14.4308 30.0335 15 29.4643 15 28.8616V27.5893H20.9598C21.4286 27.5893 21.7634 27.4889 21.9978 27.288C22.1987 27.1206 22.4665 26.7857 22.4665 26.4174V18.6831C22.4665 17.2433 19.9554 17.0424 19.9554 18.8505V25.0112H14.9665V4.98886C14.9665 3.85046 13.5937 3.71653 12.7902 3.48216L10.3125 2.74555C10.2121 2.71207 10.2121 2.71207 10.1451 2.67859L19.9554 2.61162V8.87278C19.9554 9.50895 20.5246 10.1116 21.2612 10.1116C21.8638 10.1116 22.5 9.57591 22.5 8.93975V1.27234C22.5 0.66966 21.9308 0.100464 21.3281 0.100464H1.23884C0.602679 0.100464 0 0.66966 0 1.3393L0 1.23886Z" fill="#34A343"/>
<path id="Vector_2" fill-rule="evenodd" clip-rule="evenodd" d="M23.7053 9.94425C23.7053 10.9822 25.0446 11.5849 25.6473 12.4554H18.616C17.1093 12.6228 17.1428 14.7657 18.5156 14.9666C18.9173 15.0335 24.9106 14.9666 25.6473 14.9666C25.1785 15.7032 23.7053 16.4733 23.7053 17.4777C23.7053 18.1474 24.241 18.7166 25.0446 18.7166C25.6807 18.7166 26.1495 18.0469 26.4843 17.7121L28.9285 15.2679C29.4977 14.6987 29.933 14.4978 29.933 13.6273C29.933 13.0246 29.2633 12.5224 28.9285 12.1876L26.4843 9.74336C26.049 9.30809 25.6807 8.73889 24.9107 8.73889C24.2745 8.73889 23.6718 9.34157 23.6718 9.97773L23.7053 9.94425Z" fill="#34A343"/>
</g>
</g>
</g>
<defs>
<clipPath id="clip0_45_126">
<rect width="30" height="30" fill="white"/>
</clipPath>
</defs>
</svg>
