<svg width="21" height="20" viewBox="0 0 21 20" fill="none" xmlns="http://www.w3.org/2000/svg">
<g clip-path="url(#clip0_35_846)">
<path fill-rule="evenodd" clip-rule="evenodd" d="M1 5.67984V17.6913C1 18.297 1.34248 18.918 1.65429 19.2273C1.74715 19.3193 1.83575 19.4207 1.93202 19.4974C2.21741 19.7231 2.71409 20 3.1128 20H15.6328C16.052 20 16.7676 19.5613 17.0692 19.206C17.3921 18.8243 17.7064 18.2629 17.7064 17.5745V10.8451C17.7064 10.426 17.3469 10.0239 16.9243 10.0239C15.8194 10.0239 16.0239 11.0709 16.0239 11.784V16.7141C16.0239 17.238 16.1576 18.3575 15.2026 18.3575H3.4655C3.05998 18.3575 2.68257 17.9801 2.68257 17.5754V5.87664C2.68257 4.88925 3.70915 5.01619 4.28676 5.01619H9.29443C9.66928 5.01619 10.1924 5.08349 10.494 4.96337C11.3442 4.626 11.1014 3.33362 10.1941 3.33362H3.46464C2.76861 3.33362 2.12455 3.67439 1.77185 4.02794C1.42171 4.37894 1 5.00256 1 5.68155L1 5.67984Z" fill="#34A343"/>
<path fill-rule="evenodd" clip-rule="evenodd" d="M8.12036 12.4877C8.12036 13.1837 8.89732 12.8532 9.41615 12.7671L11.1771 12.4153C11.6576 12.3361 11.638 12.3565 11.9242 12.0677C12.3221 11.6681 18.2362 5.80257 18.37 5.60237L15.4453 2.65808C15.2119 2.81739 9.50901 8.57476 9.00978 9.074C8.72183 9.36195 8.72694 9.30317 8.63834 9.75895C8.57529 10.081 8.52077 10.3459 8.45602 10.6714C8.3819 11.0411 8.12036 12.2142 8.12036 12.4877Z" fill="#34A343"/>
<path fill-rule="evenodd" clip-rule="evenodd" d="M16.2982 1.7678L19.2416 4.73168L20.3176 3.67528C20.724 3.26891 20.9762 2.79438 21.0316 2.29089V1.86237C21.0069 1.63746 20.943 1.40914 20.8365 1.17997C20.7888 1.07944 20.7266 0.989137 20.6567 0.889461C19.907 -0.183124 18.4178 -0.33562 17.3827 0.700331L16.2974 1.7661L16.2982 1.7678Z" fill="#34A343"/>
</g>
<defs>
<clipPath id="clip0_35_846">
<rect width="20.0317" height="20" fill="white"/>
</clipPath>
</defs>
</svg>
