<svg width="29" height="35" viewBox="0 0 29 35" fill="none" xmlns="http://www.w3.org/2000/svg">
<g id="&#208;&#179;&#208;&#181;&#208;&#190;&#208;&#187;&#208;&#190;&#208;&#186;&#208;&#176;&#209;&#134;&#208;&#184;&#209;&#143; 1">
<g id="D:_x005c_&#208;&#160;&#208;&#176;&#208;&#177;&#208;&#190;&#209;&#130;&#208;&#176;_x005c_&#208;&#186;&#208;&#190;&#209;&#128;&#209;&#129;_x005c_&#209;&#129;&#208;&#176;&#208;&#185;&#209;&#130;_x005c_ezgif.com_gif_maker-_2_.gif_x0020_3">
<path id="Vector" fill-rule="evenodd" clip-rule="evenodd" d="M6.46981 15.3477C6.46981 14.6676 6.53164 14.0493 6.84079 13.3691C6.96445 13.1837 7.02628 12.9982 7.21177 12.8127C7.45909 12.4417 7.76824 12.1944 8.13922 11.8852C10.1796 10.525 12.8383 11.3288 13.8276 13.3691C14.3222 14.4821 14.3222 15.7187 13.8276 16.8316C13.6421 17.1408 13.333 17.6973 13.0238 17.9446C11.7872 18.9957 10.4269 19.3048 8.81935 18.6865C8.38654 18.5011 8.13922 18.3156 7.83007 18.0064C7.76824 17.9446 7.76824 17.9446 7.70641 17.8827C7.45909 17.6354 7.08811 17.1408 6.90262 16.7698C6.71713 16.3988 6.53164 15.8424 6.53164 15.2859L6.46981 15.3477ZM0.966922 15.0386C0.966922 16.337 1.09058 16.8316 1.52339 18.0682C2.32719 20.4796 4.36758 23.8803 5.8515 26.0443L6.28432 26.7245C6.84079 27.5283 8.13922 29.445 8.69569 30.1251C8.75752 30.187 8.81935 30.2488 8.88118 30.3106C9.56131 30.9289 10.6743 30.9907 11.4781 30.4961C11.6635 30.3724 11.849 30.2488 11.9727 30.0633C13.2711 28.3939 14.8787 25.9825 15.9917 24.1894C16.6718 23.0765 17.9084 20.9743 18.403 19.7377C18.8977 18.5011 19.6396 16.8935 19.6396 15.5332C19.6396 13.802 19.3923 12.8745 18.774 11.3288C18.5885 10.9578 18.1557 10.2776 17.9702 9.90666C17.3519 9.04104 16.61 8.29907 15.7443 7.61894C15.6207 7.55711 15.5588 7.49528 15.4352 7.37162C15.3115 7.30979 15.2497 7.24796 15.0642 7.1243C13.8276 6.38234 12.1582 5.82587 10.6124 5.82587C9.1285 5.82587 8.5102 5.8877 7.14994 6.38234C6.40798 6.62966 5.54235 7.06247 4.86222 7.55711C3.9966 8.17541 3.25464 8.91738 2.57451 9.783C1.89437 10.7104 1.39973 11.8234 1.15241 12.8745C1.02875 13.4928 0.843262 14.1729 0.843262 14.8531L0.966922 15.0386Z" fill="white"/>
</g>
</g>
</svg>
