<svg width="34" height="35" viewBox="0 0 34 35" fill="none" xmlns="http://www.w3.org/2000/svg">
<g id="D:_x005c_&#208;&#160;&#208;&#176;&#208;&#177;&#208;&#190;&#209;&#130;&#208;&#176;_x005c_&#208;&#186;&#208;&#190;&#209;&#128;&#209;&#129;_x005c_&#209;&#129;&#208;&#176;&#208;&#185;&#209;&#130;_x005c_ezgif.com_gif_maker-_2_.gif_x0020_3">
<g id="_1317082992">
<path id="Vector" d="M16.7509 10.3357C15.3575 10.3357 14.211 10.9391 13.2762 12.146L11.3536 9.96295C11.8828 9.09327 12.6412 8.40108 13.629 7.86863C14.6167 7.33617 15.7279 7.06995 16.9273 7.06995C18.7617 7.06995 20.208 7.54916 21.2311 8.50757C22.307 9.44824 22.8361 10.6374 22.8361 12.0573C22.8361 13.2997 22.5892 14.3113 22.0953 15.0745C21.6015 15.8377 20.9136 16.5831 20.0317 17.2931C19.9258 17.3818 19.7671 17.5061 19.5907 17.6658C19.4143 17.8078 19.2732 17.932 19.1674 18.0208C19.0615 18.1095 18.9381 18.216 18.7793 18.3757C18.6206 18.5177 18.4971 18.642 18.4266 18.7307C18.356 18.8194 18.2502 18.9437 18.1267 19.1034C18.0033 19.2632 17.9327 19.4051 17.8798 19.5116C17.8445 19.6181 17.7916 19.7779 17.721 19.9731C17.6505 20.1683 17.6329 20.3281 17.6681 20.4878C17.7034 20.6475 17.7034 20.825 17.7034 21.0557L14.7402 21.0912C14.6344 20.3991 14.6167 19.7779 14.7225 19.2277C14.8284 18.6952 15.0577 18.1982 15.4281 17.7545C15.7985 17.3108 16.0983 16.9913 16.3276 16.7961C16.5569 16.6009 16.945 16.2992 17.4741 15.9087C18.7088 15.039 19.3261 13.9919 19.3261 12.785C19.3261 12.1105 19.0792 11.5248 18.5677 11.0634C18.0562 10.5841 17.4388 10.3534 16.6804 10.3534L16.7509 10.3357ZM14.1934 25.1201C14.1934 24.5699 14.4051 24.0907 14.8284 23.6648C15.2517 23.2388 15.7808 23.0258 16.4158 23.0258C16.9979 23.0258 17.4917 23.2388 17.8974 23.6648C18.3031 24.0907 18.4971 24.5699 18.4971 25.1201C18.4971 25.7413 18.3031 26.2738 17.8974 26.7175C17.5094 27.1612 16.9979 27.392 16.3982 27.392C15.7632 27.392 15.2341 27.1612 14.8107 26.7175C14.3874 26.2738 14.1758 25.7413 14.1758 25.1201H14.1934Z" fill="#9F9E9E"/>
<path id="Vector_2" d="M17.1213 33.4442C26.0249 33.4442 33.2427 26.1813 33.2427 17.2221C33.2427 8.26288 26.0249 1 17.1213 1C8.21777 1 1 8.26288 1 17.2221C1 26.1813 8.21777 33.4442 17.1213 33.4442Z" stroke="#9F9E9E" stroke-width="1.33495" stroke-miterlimit="22.9256"/>
</g>
</g>
</svg>
