<svg width="35" height="35" viewBox="0 0 35 35" fill="none" xmlns="http://www.w3.org/2000/svg">
<g clip-path="url(#clip0_45_281)">
<path fill-rule="evenodd" clip-rule="evenodd" d="M13.7452 26.082V17.9966H18.6195C19.5436 17.9966 20.4214 17.5808 21.0913 17.0494C21.23 16.9339 21.2762 16.9339 21.3917 16.7953C21.6689 16.5412 22.0616 15.9637 22.2464 15.6172C22.4543 15.2476 22.6622 14.5776 22.6622 14.0232H29.916C31.6948 14.0232 32.9884 15.0396 32.9884 16.6105V26.1051C32.9884 26.9367 32.4802 27.6991 32.0182 28.0687C30.4473 29.2699 29.1536 28.1842 28.5068 29.0389C28.0217 29.6858 28.5761 31.8804 28.2527 33.3126C27.9062 33.3126 27.9524 33.3588 27.7445 33.1971C27.2362 32.7813 23.7018 29.0389 23.3322 28.8079C23.0549 28.6231 22.4543 28.6924 22.0385 28.6924C20.3059 28.6924 18.3192 28.7848 16.6097 28.6924C14.9696 28.6 13.7452 27.6298 13.7452 26.1051V26.082ZM1.75571 13.746V4.41314C1.75571 3.6508 2.07913 3.00397 2.42565 2.58815C2.74906 2.21853 3.4883 1.77961 4.18133 1.77961H18.5502C19.867 1.77961 20.9989 3.00397 20.9989 4.43624V13.7691C20.9989 14.901 20.1211 15.8944 19.2433 16.1947C18.3423 16.495 14.5075 16.3564 13.0522 16.3564C10.9269 16.3564 11.5968 16.2409 9.10187 18.7358C8.40884 19.4289 7.7158 20.1681 6.99967 20.838C6.23733 21.5311 6.42214 20.0526 6.42214 19.7061C6.42214 18.9899 6.42214 18.2738 6.42214 17.5346C6.42214 16.8184 6.21423 16.3564 5.5212 16.3564C4.71266 16.3333 4.22753 16.4257 3.5807 16.2178C2.67976 15.9406 1.75571 14.9703 1.75571 13.7922V13.746ZM0.0231309 4.75965V13.3302C0.0231309 14.8317 0.462052 15.7096 1.13198 16.5412C1.61711 17.1418 2.95697 17.9966 3.99652 17.9966H4.68956V20.5146C4.68956 22.4089 6.76866 23.5178 8.36263 21.9007L12.0126 18.2969C12.0126 19.7523 11.9433 25.4582 12.0588 26.4054C12.1974 27.4218 12.6132 28.5307 13.3987 29.1775C14.2534 29.8706 15.0158 30.3788 16.3325 30.3557H22.385C22.6622 30.4019 22.7777 30.6329 22.9625 30.8177C23.7018 31.5569 24.8568 32.8044 25.5499 33.3819C26.5201 34.1905 26.8666 35.0221 28.0217 35.0221C29.1998 35.0221 30.0546 34.0519 30.0546 32.8506V30.3326C32.1106 30.3326 33.6584 29.3854 34.4207 27.5142C34.6286 27.006 34.721 26.2668 34.721 25.5969V17.0956C34.721 16.4257 34.6286 15.7096 34.4438 15.2245C34.3514 14.9703 34.2359 14.7162 34.0742 14.4621C33.4735 13.4226 32.0413 12.3599 30.609 12.3599H22.7315V4.75965C22.7315 3.28118 22.2926 2.17233 21.5303 1.43309C21.1375 1.04037 20.791 0.716959 20.2597 0.462847C19.7746 0.231836 19.1047 0.0239258 18.3885 0.0239258H4.29684C2.93387 0.0239258 2.03293 0.578352 1.17819 1.43309C0.41585 2.17233 -0.0230713 3.28118 -0.0230713 4.75965H0.0231309Z" fill="#4D4D4D"/>
<path fill-rule="evenodd" clip-rule="evenodd" d="M8.6398 6.07652C8.6398 6.63094 8.91701 6.97746 9.47144 6.97746C9.79486 6.97746 10.0259 6.53854 10.2107 6.33063C11.0423 5.38348 13.5834 6.26133 11.7122 7.90151C11.0192 8.52524 10.3031 8.82555 10.3031 10.3964C10.3031 11.6208 11.5736 11.2281 11.7353 10.9971C12.0588 10.5812 11.435 9.9575 12.6132 9.01036C15.2929 6.88506 13.9762 4.39014 11.204 4.39014C9.97966 4.39014 8.6167 5.15247 8.6167 6.05342L8.6398 6.07652Z" fill="#4D4D4D"/>
<path fill-rule="evenodd" clip-rule="evenodd" d="M22.1078 21.3463C22.1078 23.0096 24.6258 23.0096 24.6258 21.3463C24.6258 19.6831 22.1078 19.6831 22.1078 21.3463Z" fill="#4D4D4D"/>
<path fill-rule="evenodd" clip-rule="evenodd" d="M27.2594 21.277C27.2594 22.4321 28.53 23.0558 29.4078 22.2473C30.5629 21.1846 28.8534 19.2672 27.6752 20.4454C27.5135 20.6071 27.2594 20.9998 27.2594 21.277Z" fill="#4D4D4D"/>
<path fill-rule="evenodd" clip-rule="evenodd" d="M16.9331 21.277C16.9331 22.663 18.3654 22.9403 19.0815 22.2241C19.5435 21.7621 19.5666 20.9998 19.0584 20.4684C18.2499 19.6137 16.9331 20.2836 16.9331 21.277Z" fill="#4D4D4D"/>
<path fill-rule="evenodd" clip-rule="evenodd" d="M10.1876 12.6834C10.1876 13.9309 11.9895 13.8154 11.9895 12.7527C11.9895 12.1059 11.3889 11.7825 11.0886 11.7825C10.6727 11.7825 10.1876 12.2676 10.1876 12.6834Z" fill="#4D4D4D"/>
</g>
<defs>
<clipPath id="clip0_45_281">
<rect width="34.721" height="35" fill="white"/>
</clipPath>
</defs>
</svg>
