<svg width="31" height="45" viewBox="0 0 31 45" fill="none" xmlns="http://www.w3.org/2000/svg">
<g id="D:_x005c_&#208;&#160;&#208;&#176;&#208;&#177;&#208;&#190;&#209;&#130;&#208;&#176;_x005c_&#208;&#186;&#208;&#190;&#209;&#128;&#209;&#129;_x005c_&#209;&#129;&#208;&#176;&#208;&#185;&#209;&#130;_x005c_ezgif.com_gif_maker-_2_.gif_x0020_3">
<path id="Vector" fill-rule="evenodd" clip-rule="evenodd" d="M19.8029 44.895H19.6996L19.7512 45V44.895C20.3192 44.79 21.9715 43.6873 22.4362 43.3197C22.9009 43.0047 23.2107 42.7421 23.6755 42.4271C24.7598 41.5869 26.1539 40.2217 26.9801 39.1715C27.2899 38.7515 27.548 38.3839 27.8578 37.9113C28.116 37.5438 28.5291 36.8611 28.6324 36.4411C28.8905 36.231 28.9422 35.916 29.0971 35.5484C29.9749 33.4481 30.1298 31.9778 30.0265 29.7725C30.0265 29.1949 29.7683 27.8296 29.5618 27.4621C28.9422 24.6791 26.5154 21.8436 24.6565 19.9533L22.2297 17.3804C21.8166 16.9603 21.4552 16.4877 21.0937 16.0152C17.944 12.0245 17.0146 7.14119 17.0146 0C16.5499 0.105017 15.2591 1.83781 14.846 2.25788C13.71 3.46558 12.0061 6.19603 11.3348 7.8238C11.2316 8.08635 11.1283 8.19136 11.025 8.50642L10.3022 10.2917C9.68254 12.1295 9.21783 14.7024 9.21783 16.7503C9.21783 17.3804 9.16619 18.1155 9.21783 18.6931C9.3211 20.1634 9.94071 23.839 9.94071 23.8915C9.06293 23.839 7.92697 22.8413 7.51389 22.2637C7.04918 21.6336 6.42957 20.3209 6.3263 19.3232C6.06813 19.3757 6.22303 19.3232 6.06813 19.4807L4.674 21.3711C4.15766 22.1587 3.64131 22.9463 3.22824 23.7865L3.0217 24.049C2.97007 24.154 2.91843 24.3116 2.8668 24.4166L1.88575 26.5694C1.47267 27.6196 1.2145 28.6173 1.00796 29.93C0.543251 32.923 1.47267 35.7585 3.07334 38.1213L4.98381 40.3792C7.10082 42.1645 7.20409 42.3746 9.78581 43.9498C10.0956 44.1599 10.8701 44.6324 11.1799 44.6849C10.6636 43.6873 8.39168 41.4294 9.26946 38.4364C9.68254 36.9662 10.4571 36.126 11.3348 35.1283C11.5414 34.9183 11.6963 34.8133 11.8512 34.5508C12.161 34.1307 12.4192 33.6581 12.6773 33.238C13.71 31.3477 14.278 28.0922 14.278 25.8868C15.5172 27.3571 16.4983 29.0898 17.1695 30.9277C17.531 31.9253 17.7375 32.9755 17.8408 34.1832C17.9957 35.3909 17.5826 36.5986 17.3244 37.7013C18.4088 37.4387 19.3382 36.231 19.7512 35.2334C19.9061 34.8658 19.9578 34.2357 20.2676 34.0257C20.4225 34.8133 21.3003 36.3361 21.3519 38.0688V39.5916C21.3003 40.9043 20.8356 42.5846 20.2676 43.5823C20.1127 43.8448 19.7512 44.4224 19.6996 44.6849L19.8029 44.895Z" fill="url(#paint0_linear_35_467)"/>
</g>
<defs>
<linearGradient id="paint0_linear_35_467" x1="5.34525" y1="35.9685" x2="30.304" y2="-19.8018" gradientUnits="userSpaceOnUse">
<stop stop-color="#F98E30"/>
<stop offset="1" stop-color="#FF0000"/>
</linearGradient>
</defs>
</svg>
