<svg width="13" height="13" viewBox="0 0 13 13" fill="none" xmlns="http://www.w3.org/2000/svg">
<g id="&#208;&#161;&#208;&#187;&#208;&#190;&#208;&#185;_x0020_1">
<path id="Vector" fill-rule="evenodd" clip-rule="evenodd" d="M6.25323 0.000488281C2.80245 0.000488281 0 2.80294 0 6.25372C0 9.7045 2.80245 12.5069 6.25323 12.5069C9.70401 12.5069 12.5065 9.7045 12.5065 6.25372C12.5065 2.80294 9.70401 0.000488281 6.25323 0.000488281ZM9.55761 9.12936L9.05568 9.6313C8.97202 9.72541 8.70014 9.77769 8.70014 9.77769C7.12115 9.78815 5.59444 9.17119 4.47556 8.0523C3.35667 6.92296 2.72925 5.39625 2.75017 3.8068C2.75017 3.8068 2.80245 3.55584 2.89656 3.46172L3.39849 2.95979C3.58672 2.77157 3.9318 2.68791 4.18276 2.77157L4.28733 2.80294C4.52784 2.88659 4.78926 3.15847 4.86246 3.40944L5.11343 4.32965C5.18662 4.58061 5.09251 4.93615 4.90429 5.12437L4.56967 5.45899C4.89383 6.67199 5.85587 7.62357 7.06887 7.95819L7.40349 7.62357C7.59171 7.43535 7.94725 7.35169 8.19821 7.41443L9.11842 7.6654C9.36939 7.7386 9.64127 7.98956 9.72492 8.24053L9.75629 8.3451C9.83995 8.59606 9.75629 8.94114 9.56807 9.12936H9.55761Z" fill="#34A343"/>
</g>
</svg>
