<svg width="29" height="23" viewBox="0 0 29 23" fill="none" xmlns="http://www.w3.org/2000/svg">
<path id="&#208;&#186;&#208;&#176;&#209;&#130;&#208;&#176;&#208;&#187;&#208;&#190;&#208;&#179;" fill-rule="evenodd" clip-rule="evenodd" d="M15.5857 19.1343V3.95548C15.9051 3.87728 16.3023 3.66876 16.6304 3.54712C18.9963 2.68696 21.8716 2.69565 24.2374 3.52974C24.6001 3.66007 24.9973 3.87728 25.334 3.95548V19.1343C24.9973 19.0561 24.6087 18.9084 24.272 18.8128C22.1479 18.1872 19.877 18.109 17.7011 18.5434C17.0794 18.6651 16.0865 18.891 15.5857 19.1343ZM2.9361 19.1343V3.95548C3.19513 3.89466 4.09312 3.4863 5.11199 3.22564C7.19291 2.69565 9.60194 2.82597 11.5965 3.52974C11.9592 3.66007 12.3564 3.87728 12.6931 3.95548V19.1343C10.9058 18.2741 7.21018 18.0395 5.11199 18.5347L2.9361 19.1343ZM1.4855 22.9137C2.15036 22.9137 3.15196 22.2013 4.34352 21.8103C5.58689 21.402 6.16541 21.3846 7.34833 21.3238C8.00456 21.289 7.3656 21.2456 8.20315 21.3238C8.37584 21.3411 8.55717 21.3238 8.72986 21.3238C9.90415 21.3498 11.6483 21.8624 12.6845 22.3837C14.9812 23.548 13.9969 22.8095 16.9413 21.8277C18.3314 21.3672 18.9877 21.4193 20.3433 21.2716C21.0599 21.1934 23.02 21.5323 23.7712 21.7582C24.2461 21.8972 24.8073 22.1144 25.1959 22.3142C25.7139 22.5749 26.1716 22.9137 26.776 22.9137C27.769 22.9137 28.2266 22.2621 28.2266 21.2542V3.28646C28.2266 2.43499 27.8639 1.88762 27.225 1.71385C26.9314 1.63565 26.9919 1.67909 26.7328 1.54008C20.1274 -1.84843 14.3509 1.47926 14.1351 1.47057C13.9796 1.46188 13.2975 1.11434 13.073 1.02746C9.04933 -0.562535 4.82705 -0.275815 0.99333 1.67041C0.198955 2.07008 0.0262643 2.46106 0.0262643 3.61663V18.5347C0.0262643 19.5079 0.0262643 20.507 0.000360702 21.4628C-0.0169083 22.2534 0.587508 22.9137 1.46823 22.9137H1.4855Z" fill="#FF6633"/>
</svg>
