<svg width="13" height="13" viewBox="0 0 13 13" fill="none" xmlns="http://www.w3.org/2000/svg">
<g id="&#208;&#181;&#208;&#188;&#208;&#181;&#208;&#185;&#208;&#187; &#208;&#183;&#208;&#181;&#208;&#187; 1" clip-path="url(#clip0_35_584)">
<g id="&#208;&#161;&#208;&#187;&#208;&#190;&#208;&#185;_x0020_1">
<path id="Vector" fill-rule="evenodd" clip-rule="evenodd" d="M2.7286 5.47099C2.77879 5.49608 2.82442 5.53258 2.87689 5.57137C2.9248 5.60787 2.97499 5.63753 3.02747 5.67175C3.12329 5.73563 3.22139 5.81092 3.31036 5.87252C3.39021 5.92727 3.45866 5.9729 3.53394 6.02766C3.61836 6.08925 4.14537 6.43603 4.17047 6.47482C4.27541 6.52273 4.40089 6.62767 4.49671 6.69155L4.72714 6.84897C4.77505 6.88091 4.76364 6.86722 4.7933 6.91285C4.83665 6.91742 4.7933 6.90373 4.84121 6.92882L5.407 7.29613C5.45035 7.30526 5.64199 7.37142 5.66252 7.3988C5.81538 7.39424 6.17813 7.55394 6.75761 7.41021C6.80552 7.3988 6.86484 7.38283 6.91047 7.36686C6.96523 7.34861 7.01085 7.31895 7.06561 7.31439C7.10211 7.27104 7.17968 7.25279 7.23443 7.21857C7.29375 7.18206 7.33025 7.15925 7.38501 7.12046C7.48539 7.05202 7.58121 6.97901 7.69072 6.91285L8.18123 6.56836C8.2223 6.54098 8.30443 6.4771 8.35006 6.45885C8.37743 6.42006 8.59189 6.28546 8.64892 6.24211C8.69912 6.20561 8.74018 6.18279 8.79722 6.13945C8.84513 6.10522 8.8976 6.05275 8.95692 6.04134C8.96376 6.02766 9.82843 5.41167 9.90143 5.38657V8.85207L2.60312 8.85436V5.38657C2.66015 5.40711 2.68525 5.43676 2.72632 5.46414L2.7286 5.47099ZM8.7379 5.16755C8.70824 5.20406 8.49607 5.34094 8.43903 5.38201C8.35918 5.43905 8.21089 5.55312 8.12876 5.58506C8.10822 5.62156 8.02609 5.66263 7.97818 5.69685C7.91658 5.73791 7.87324 5.76985 7.82305 5.80636C7.72266 5.87708 7.61087 5.96149 7.50821 6.02081C7.49908 6.03222 7.50364 6.02537 7.48767 6.03906C7.48539 6.04134 7.47627 6.04819 7.4717 6.05047C7.45117 6.06644 7.44433 6.06872 7.43064 6.08013C7.33026 6.15085 6.93329 6.43147 6.88538 6.44288L6.85344 6.47482C6.78271 6.52957 6.6116 6.58889 6.52491 6.60486C6.36293 6.6368 6.23745 6.6368 6.07318 6.62083C5.97736 6.60942 5.89751 6.59117 5.81082 6.55467C5.77432 6.54098 5.74238 6.52957 5.70359 6.50676C5.65796 6.48166 5.63743 6.47254 5.6169 6.43603C5.57583 6.42919 5.50739 6.37215 5.4572 6.33793C5.37735 6.2809 5.01688 6.04363 5.00091 6.01169C4.94387 5.99572 4.73626 5.84514 4.67694 5.79951C4.58569 5.73107 4.45793 5.65806 4.37351 5.58506C4.22294 5.48467 4.08377 5.38885 3.94004 5.28619C3.79859 5.18581 3.6503 5.0877 3.51341 4.9896C3.46322 4.96451 3.40618 4.9166 3.35599 4.88466C3.30808 4.85272 3.25561 4.81621 3.2077 4.78199C3.15066 4.74093 2.93393 4.60632 2.91111 4.56069C2.87233 4.55613 2.86092 4.54244 2.82214 4.51278C2.79704 4.49681 2.77195 4.47628 2.74913 4.46031C2.71947 4.43978 2.7035 4.42837 2.67612 4.41012C2.65331 4.39415 2.61453 4.36905 2.60768 4.34624V3.64584H9.906V4.34624C9.88318 4.38958 9.91284 4.35308 9.87177 4.38958L9.32879 4.76374C9.2786 4.79796 9.23525 4.82762 9.18278 4.86641C9.13259 4.90063 9.09152 4.928 9.03449 4.96679C8.98201 5.00329 8.94323 5.03067 8.88619 5.06945C8.83144 5.10596 8.79266 5.14018 8.74246 5.16527L8.7379 5.16755ZM3.54307 0.606963C3.53623 0.613807 3.1712 0.812292 3.1461 0.821418C3.04572 0.889861 2.92936 0.953741 2.8267 1.0199C2.71947 1.08835 2.63278 1.16592 2.52555 1.2298L2.16736 1.51269C2.12858 1.54463 2.1263 1.5606 2.08295 1.59254C1.94378 1.69521 1.78636 1.89141 1.67457 1.98951L1.44643 2.24732C1.4259 2.27241 1.4008 2.30207 1.37799 2.33173C1.34833 2.37051 1.26848 2.48915 1.23654 2.50284C1.21601 2.56672 1.07228 2.74695 1.02208 2.82452C0.955922 2.92718 0.88976 3.04354 0.823599 3.14392C0.807628 3.18727 0.766563 3.24887 0.741467 3.29221C0.593173 3.53633 0.360467 4.13863 0.278335 4.40099C0.203048 4.64282 0.146012 4.87781 0.100383 5.12649C0.0752874 5.26794 0.0593173 5.38657 0.0433473 5.52802C0.0319401 5.62156 0.0273772 5.87252 0 5.93412V6.56379C0.0205329 6.60942 0.0615988 7.12731 0.0775688 7.24138C0.146012 7.66345 0.244114 8.0376 0.387844 8.42773C0.433473 8.55549 0.597736 8.90683 0.604581 8.96158C0.657054 9.00265 0.677587 9.08934 0.711808 9.14866C0.74603 9.21026 0.796221 9.28555 0.823599 9.34486C0.896604 9.52282 1.21601 9.93119 1.22969 9.98823C1.2776 10.0088 1.48293 10.2962 1.53541 10.351L2.29741 11.0879L3.16892 11.6879C3.23508 11.7176 3.28983 11.7449 3.36056 11.7883C3.41531 11.8225 3.502 11.843 3.53851 11.8909C3.5887 11.8955 3.98795 12.078 4.09518 12.1145C4.51724 12.2628 4.87087 12.3586 5.334 12.4294L6.05037 12.4955H6.45646C6.4884 12.4841 6.74849 12.4727 6.81009 12.4682C7.10439 12.4499 7.54699 12.3723 7.80936 12.297C8.02153 12.2354 8.2223 12.1853 8.40481 12.1145L8.96604 11.8864C8.97289 11.8795 9.3402 11.6811 9.36302 11.6719C9.46112 11.6058 9.57975 11.5396 9.68242 11.4734C9.73945 11.4347 9.78508 11.405 9.83755 11.3662C9.89003 11.3274 9.95162 11.2772 10.0041 11.2613C10.0178 11.227 10.1364 11.1472 10.1752 11.1198L10.5243 10.8164C10.5813 10.7502 10.6406 10.7092 10.6954 10.6521C10.7547 10.5882 10.7821 10.5563 10.8528 10.4901L11.2863 9.96542C11.3182 9.93348 11.2794 9.96085 11.3022 9.95173C11.3387 9.86959 11.4346 9.75324 11.4893 9.66655C11.5281 9.60267 11.5121 9.60723 11.5578 9.57757C11.5623 9.54107 11.5669 9.54107 11.5897 9.50228L11.9 8.95018C11.9319 8.85664 11.9775 8.76538 12.0186 8.66728C12.1304 8.40035 12.2399 8.08095 12.3106 7.79349C12.3654 7.57447 12.4133 7.36914 12.443 7.14328C12.4544 7.06115 12.5023 6.45885 12.5091 6.4406V5.92271C12.4886 5.87708 12.4498 5.3592 12.4315 5.24512C12.3631 4.81393 12.265 4.45575 12.1213 4.05878C12.0779 3.94014 11.9114 3.57055 11.9045 3.52492C11.8521 3.48385 11.827 3.39032 11.7927 3.32872C11.7608 3.2694 11.706 3.19411 11.6878 3.12795C11.6673 3.11426 11.5806 2.96141 11.5532 2.91578C11.3889 2.64657 11.2771 2.51881 11.0992 2.28382L10.6771 1.81841C10.6361 1.77506 10.6018 1.75681 10.5585 1.71346C10.5174 1.67468 10.4946 1.63589 10.449 1.59939L10.2094 1.39406C10.0725 1.29139 9.94934 1.18645 9.79649 1.0815C9.72804 1.03587 9.65048 0.981119 9.57747 0.940053C9.5364 0.914957 9.3767 0.823699 9.3653 0.805448C9.28545 0.771226 9.23754 0.737005 9.1554 0.695939C9.09381 0.663999 9.00711 0.638903 8.96604 0.588712L8.43219 0.371975C8.25652 0.305813 8.06031 0.241933 7.86183 0.191742C7.65878 0.14155 7.46486 0.0936398 7.24584 0.0616997C7.12949 0.0434482 6.61617 0.00466379 6.56826 -0.0158691H6.05037C6.03212 -0.00902483 5.43438 0.0388853 5.34769 0.0502925C5.12411 0.0799512 4.91421 0.130143 4.69748 0.182616C4.47618 0.23737 4.30507 0.294406 4.1043 0.365131L3.54307 0.590993V0.606963Z" fill="#34A343"/>
</g>
</g>
<defs>
<clipPath id="clip0_35_584">
<rect width="12.5068" height="12.5068" fill="white"/>
</clipPath>
</defs>
</svg>
