<svg width="30" height="30" viewBox="0 0 30 30" fill="none" xmlns="http://www.w3.org/2000/svg">
<g clip-path="url(#clip0_35_779)">
<path d="M15 28.5274C22.471 28.5274 28.5274 22.471 28.5274 15C28.5274 7.52907 22.471 1.47266 15 1.47266C7.52907 1.47266 1.47266 7.52907 1.47266 15C1.47266 22.471 7.52907 28.5274 15 28.5274Z" stroke="#FF6633" stroke-width="1.33317" stroke-miterlimit="22.9256"/>
<path d="M16.1246 24.4984H13.8457V11.6819H16.1246V24.4984ZM13.5608 6.86894C13.5608 6.47013 13.7032 6.14191 13.9881 5.88677C14.273 5.6304 14.6247 5.50159 15.0421 5.50159C15.4409 5.50159 15.7728 5.6304 16.0391 5.88677C16.3042 6.14315 16.4379 6.47013 16.4379 6.86894C16.4379 7.30614 16.3054 7.66161 16.0391 7.93656C15.7728 8.21152 15.4409 8.349 15.0421 8.349C14.6247 8.349 14.273 8.21152 13.9881 7.93656C13.7032 7.66161 13.5608 7.30491 13.5608 6.86894Z" fill="#FF6633"/>
</g>
<defs>
<clipPath id="clip0_35_779">
<rect width="30" height="30" fill="white"/>
</clipPath>
</defs>
</svg>
