<svg width="25" height="25" viewBox="0 0 25 25" fill="none" xmlns="http://www.w3.org/2000/svg">
<g clip-path="url(#clip0_62_516)">
<path fill-rule="evenodd" clip-rule="evenodd" d="M16.8371 6.10424C16.8371 5.17611 17.2417 4.40267 18.0746 4.02189C19.9428 3.15326 21.8347 5.05712 20.978 6.92527C20.4782 7.99619 19.1931 8.47216 18.0746 7.9486C17.3726 7.62732 16.8371 6.84198 16.8371 6.10424ZM16.5515 0H17.3131C17.8723 0.0237982 18.4316 0.118991 19.0265 0.26178C19.681 0.428367 19.8476 0.52356 20.4187 0.773441C21.8347 1.39219 23.1674 2.6654 23.929 3.9981C23.9885 4.10519 24.048 4.20038 24.1075 4.30747C24.2978 4.65255 24.6548 5.59258 24.75 6.00904C24.8928 6.5802 24.9761 7.12756 24.9999 7.67492V8.42456C24.9761 8.97192 24.8928 9.51928 24.75 10.0904C24.5715 10.7925 24.274 11.5064 23.9052 12.1252C23.691 12.4822 23.3935 12.9343 23.1198 13.2437C23.0127 13.3508 23.0008 13.3984 22.9056 13.5174C21.5967 14.9334 19.4787 16.0638 17.3964 16.0638C15.7662 16.0638 15.9804 16.0162 14.5168 15.6711L12.8747 17.3013C12.1608 17.8486 12.6605 17.7178 10.8043 17.7178V19.0862C10.8043 19.5383 10.4473 19.8239 10.1736 19.8239C8.81711 19.8239 8.86471 19.3003 8.80521 20.5616C8.78142 21.2042 8.76952 21.8586 7.92468 21.93C7.43682 21.9657 7.06795 22.0252 6.55629 22.0252C6.55629 23.5721 7.04415 23.1675 5.91373 24.3099C5.65195 24.5716 5.36638 25 4.90231 25H0.654334C0.356856 25 0.0236816 24.6668 0.0236816 24.3693V20.1214C0.0236816 19.7168 0.261664 19.574 0.475847 19.3479C1.51107 18.3127 9.0313 10.7211 9.30498 10.5426C9.0194 9.29319 8.91231 9.30509 8.91231 7.8534C8.91231 5.80676 9.88803 3.72442 11.2207 2.40362L11.9942 1.70157C12.1013 1.63018 12.1727 1.58258 12.2797 1.49929C12.4939 1.3446 12.6486 1.24941 12.8747 1.11852C13.5173 0.737744 14.1836 0.440267 14.9332 0.249881C15.5044 0.107092 16.0518 0.0237982 16.5872 0L16.5515 0Z" fill="#34A343"/>
</g>
<defs>
<clipPath id="clip0_62_516">
<rect width="25" height="25" fill="white"/>
</clipPath>
</defs>
</svg>
