<svg width="15" height="20" viewBox="0 0 15 20" fill="none" xmlns="http://www.w3.org/2000/svg">
<path fill-rule="evenodd" clip-rule="evenodd" d="M5.85916 12.6181V12.3834C5.85916 11.625 6.62353 10.8607 7.38188 10.8607H7.61661C8.37496 10.8607 9.13933 11.625 9.13933 12.3834C9.13933 12.8408 9.07313 13.2441 8.76016 13.5661C8.35991 13.9753 8.47427 13.7286 8.5495 14.5351C8.58862 14.9503 8.63075 15.3175 8.67589 15.7358C8.79928 16.8402 8.75113 16.6416 6.63858 16.6416C6.15408 16.6416 6.28348 16.0126 6.31357 15.7719L6.51821 13.9783C6.53626 13.6413 5.85615 13.4968 5.85615 12.6211L5.85916 12.6181ZM7.43304 0H7.7731C8.88655 0 10.1475 0.523623 11.0382 1.18868C11.5859 1.59795 12.0855 2.16973 12.4526 2.7415C13.4246 4.2582 13.3584 5.67559 13.3584 7.49925H14.6073C14.8029 7.49925 14.9985 7.69485 14.9985 7.89046V18.4382C14.9985 19.2206 14.2191 20 13.4367 20H1.56184C0.779416 20 0 19.2206 0 18.4382V7.89046C0 7.69485 0.195606 7.49925 0.391213 7.49925H1.64008V6.2895C1.64008 4.46283 2.1306 2.9371 3.37346 1.69425C4.01144 1.05327 5.06169 0.421306 5.94643 0.204634C6.69275 0.0210653 6.86729 0.00300933 7.43304 0ZM4.17996 5.7418C4.17996 3.9663 5.78092 2.49774 7.49925 2.49774L8.22449 2.59404C9.66596 2.91604 10.8185 4.25218 10.8185 5.7418V7.49925H4.17695V5.7418H4.17996Z" fill="#34A343"/>
</svg>
