<svg width="50" height="50" viewBox="0 0 50 50" fill="none" xmlns="http://www.w3.org/2000/svg">
<g clip-path="url(#clip0_35_451)">
<path fill-rule="evenodd" clip-rule="evenodd" d="M3.96916 11.4901C11.432 -0.127855 26.8916 -3.49368 38.5096 3.96918C50.1275 11.432 53.4933 26.8916 46.0304 38.5096C38.5676 50.1275 23.108 53.4933 11.4901 46.0305C-0.12787 38.5676 -3.4937 23.108 3.96916 11.4901Z" fill="url(#paint0_linear_35_451)"/>
<path d="M18.1755 41.3069C18.1175 41.2953 18.071 41.2837 18.0246 41.2489C15.8774 40.1811 14.7865 38.7535 14.2526 37.2563C13.7303 35.7939 13.7535 34.3083 13.8115 33.0548C13.9276 30.3622 16.0283 28.4239 18.0594 26.5437C18.8719 25.8821 19.6031 24.8956 20.0093 23.9207C20.3459 23.1082 20.4503 22.2958 20.1834 21.6806C19.1969 19.4638 16.3417 21.4021 15.0302 22.1449C14.7168 22.319 14.3222 22.2145 14.1365 21.9012C13.9624 21.5878 14.0669 21.1932 14.3802 21.0075L16.7131 19.696C16.8988 19.046 17.2238 18.5353 17.6184 18.1755C18.0594 17.7809 18.5817 17.5604 19.1272 17.5024C19.6611 17.4443 20.2182 17.5488 20.7289 17.8157C21.344 18.1291 21.8895 18.663 22.2609 19.4058C23.967 22.8413 23.0037 25.5107 20.4271 27.89C19.3013 28.9346 19.2549 29.8979 19.3709 30.9889C21.4369 29.7006 25.3598 24.2456 27.2052 21.6922C27.7043 21.0075 28.0525 20.52 28.2034 20.3459C28.2846 20.2531 28.3891 20.1834 28.4935 20.1486C30.5362 19.3362 32.9619 18.3032 35.1787 17.0149C37.3491 15.7498 39.299 14.2294 40.4248 12.4188C40.6105 12.117 41.0167 12.0126 41.3301 12.2099C41.7131 12.6625 41.7595 13.858 41.7711 14.6008C41.7943 15.7382 41.8292 17.3399 41.7015 19.1505C43.0826 18.4193 44.3593 17.572 45.4155 16.5855L45.4039 16.6783C45.3343 17.7345 45.2298 19.2085 44.9745 20.8566C43.5817 21.7039 42.4211 22.0753 41.2953 22.2493C41.2024 22.702 41.1096 23.1546 40.9819 23.6073C42.1193 23.4796 43.2916 23.2127 44.6495 22.5279C44.4406 23.468 44.1736 24.4313 43.8254 25.3714H43.7906C42.3979 25.5688 41.3185 25.6268 40.3436 25.5571C40.2971 25.6732 40.2507 25.7777 40.2159 25.8821C40.0882 26.1839 39.9373 26.4973 39.7748 26.8106C39.9025 26.8222 40.0186 26.8338 40.1462 26.8454C41.0631 26.9151 42.0497 26.8803 43.2335 26.7526C43.1523 26.9151 43.071 27.0892 42.9782 27.2517C42.63 27.9248 42.1309 28.6328 41.5274 29.364C40.1462 29.2015 39.241 29.0506 38.4749 28.8417C38.1964 29.2131 37.9062 29.5729 37.5929 29.9443C38.3589 30.1997 39.1945 30.3738 40.448 30.5479C39.7865 31.2094 39.0436 31.8594 38.2312 32.4745C38.2196 32.4745 38.208 32.4629 38.1964 32.4629C37.175 32.1611 36.4554 31.9406 35.8983 31.7317C35.5501 32.0567 35.1787 32.3817 34.8073 32.695C35.3528 32.9388 35.9796 33.1593 36.8617 33.4378L36.792 33.4843C36.1421 33.8905 35.4805 34.2735 34.7957 34.5985C34.5752 34.552 34.4824 34.5288 34.3779 34.5056C33.8788 34.4012 33.403 34.2967 32.9155 34.0994C32.4745 34.3896 32.0334 34.6565 31.5692 34.9118C31.9638 35.144 32.3468 35.3065 32.7182 35.4341C31.5692 35.7939 30.4086 36.0144 29.2595 36.0144C29.1667 36.0144 29.0854 36.026 29.0158 36.0377L28.9229 36.0725C28.7024 36.1653 28.5864 36.3742 28.5864 36.6876C28.5864 37.0242 29.364 37.9179 30.3157 38.9276C31.2442 39.7517 31.9522 40.4597 31.9406 40.7962C31.929 41.2373 31.604 41.3417 31.1514 41.3301L18.1755 41.3417V41.3185V41.3069Z" fill="white"/>
<path fill-rule="evenodd" clip-rule="evenodd" d="M2.3793 21.4137L6.38347 30.838C6.52275 31.1514 6.84773 31.3371 7.09146 31.4067C7.38162 31.488 7.59053 31.4183 7.89229 31.2907L8.12442 31.1978L14.9721 28.2846C14.9605 28.2846 14.9605 28.2846 14.9605 28.2846L10.8403 28.598C10.6198 28.598 10.4109 28.5284 10.2368 28.4123C10.0627 28.2962 9.91179 28.0989 9.79573 27.832L9.05293 26.091C8.75116 26.2187 8.41458 26.416 8.22888 25.975L7.1611 23.468C6.9754 23.027 7.3468 22.9225 7.64856 22.7948L6.90576 21.0539C6.52275 20.137 7.05664 19.7888 7.57892 19.3245C7.76463 19.1621 7.92711 19.0112 8.10121 18.8603L10.1671 17.0149L3.34262 19.9165L3.04086 20.0441C2.77391 20.1602 2.59982 20.2647 2.46054 20.5084C2.33287 20.7289 2.24002 21.1003 2.36769 21.4253L2.3793 21.4137Z" fill="white"/>
<path fill-rule="evenodd" clip-rule="evenodd" d="M12.5232 20.7173C12.7786 20.6013 12.9759 20.6825 13.0919 20.9495L14.1597 23.4564C14.3454 23.8975 13.974 24.0019 13.6722 24.1296L12.2679 20.8334L12.5348 20.7173H12.5232ZM12.3723 19.9977L11.9777 20.1718L10.8055 17.4211C10.701 17.4792 10.4573 17.7113 10.3528 17.8042C9.99304 18.1175 7.61374 20.1718 7.52089 20.3459C7.48607 20.4156 7.45125 20.5316 7.48607 20.6245L8.28691 22.5163C8.58867 22.3886 8.92525 22.1913 9.11096 22.6324L10.1787 25.1393C10.3644 25.5804 9.99304 25.6848 9.69127 25.8125L10.4921 27.7043C10.5269 27.7972 10.6314 27.8436 10.701 27.8668C10.8867 27.9249 12.5232 27.7508 12.7437 27.7392L14.4963 27.5999C14.6472 27.5883 14.9838 27.5767 15.0998 27.5418L13.9276 24.7912L14.3222 24.6171C14.7864 24.4197 15.0534 23.7582 14.8561 23.2939L13.6722 20.52C13.4749 20.0558 12.8134 19.7888 12.3491 19.9861L12.3723 19.9977Z" fill="white"/>
<path fill-rule="evenodd" clip-rule="evenodd" d="M7.91551 23.4564L8.76277 25.4295L9.42433 25.1509L8.57707 23.1663L7.91551 23.4564Z" fill="white"/>
</g>
<defs>
<linearGradient id="paint0_linear_35_451" x1="45.9376" y1="9.01792" x2="8.6349" y2="42.7343" gradientUnits="userSpaceOnUse">
<stop stop-color="#34A343"/>
<stop offset="0.290196" stop-color="#34A343"/>
<stop offset="0.631373" stop-color="#FF6633"/>
<stop offset="1" stop-color="#FF6633"/>
</linearGradient>
<clipPath id="clip0_35_451">
<rect width="50" height="50" fill="white"/>
</clipPath>
</defs>
</svg>
