<svg width="45" height="25" viewBox="0 0 45 25" fill="none" xmlns="http://www.w3.org/2000/svg">
<g id="&#209;&#128;&#208;&#181;&#208;&#183;&#209;&#142;&#208;&#188;&#208;&#181; &#208;&#177;&#208;&#181;&#208;&#187; 1" clip-path="url(#clip0_35_438)">
<g id="D:_x005c_&#208;&#160;&#208;&#176;&#208;&#177;&#208;&#190;&#209;&#130;&#208;&#176;_x005c_&#208;&#186;&#208;&#190;&#209;&#128;&#209;&#129;_x005c_&#209;&#129;&#208;&#176;&#208;&#185;&#209;&#130;_x005c_ezgif.com_gif_maker-_2_.gif_x0020_3">
<g id="_1344827200">
<path id="Vector" fill-rule="evenodd" clip-rule="evenodd" d="M12.6713 23.2748V24.9983H31.5512C31.5512 22.7592 31.7631 21.1912 30.8025 19.1923C30.2092 17.9492 29.3757 16.9957 28.288 16.1905C25.7806 14.3399 22.9906 14.7355 20.0029 14.7355C18.8516 14.7355 17.7427 15.2582 16.9092 15.6113C15.7226 16.1128 14.5643 17.37 13.8297 18.479C12.9962 19.7433 12.6713 21.6221 12.6713 23.2678V23.2748Z" fill="white"/>
<path id="Vector_2" fill-rule="evenodd" clip-rule="evenodd" d="M22.0653 12.8425C24.5657 12.8425 26.5151 11.3805 27.5817 9.2262C29.4887 5.35559 26.833 0.00170898 22.0653 0.00170898C19.7345 0.00170898 17.4319 1.68981 16.5843 3.82994C16.0051 5.29908 15.8568 6.8671 16.3512 8.38568C16.7044 9.47341 17.0293 9.99609 17.778 10.8437C18.8587 12.0727 20.3066 12.8496 22.0653 12.8496V12.8425Z" fill="white"/>
<path id="Vector_3" fill-rule="evenodd" clip-rule="evenodd" d="M0 19.9975V23.7057H10.171C10.171 21.0853 10.2628 19.5243 11.633 17.2358C11.8449 16.8897 12.0144 16.6284 12.2546 16.3035C12.3817 16.134 12.4594 16.0351 12.6077 15.8797C12.7985 15.6749 12.8196 15.6043 12.9962 15.4065C13.42 14.9262 14.5784 14.1139 14.7408 13.8738C12.3888 12.2987 10.3193 12.5812 7.50108 12.5812C6.44867 12.5812 5.26206 12.9485 4.51336 13.3017C3.45389 13.789 2.64162 14.4388 1.92118 15.2723C0.861706 16.4942 0.00706316 18.2529 0.00706316 19.9905L0 19.9975Z" fill="white"/>
<path id="Vector_4" fill-rule="evenodd" clip-rule="evenodd" d="M29.4816 13.8808C29.6441 14.0998 30.1879 14.3964 30.4493 14.6366C33.2039 17.0875 34.1363 19.7362 34.1363 23.7057H44.1377V20.3012C44.0459 18.5354 43.6715 16.8897 42.3083 15.3641C41.5102 14.4741 40.8321 13.8737 39.6879 13.3299C37.689 12.3764 35.9727 12.5812 33.7972 12.5812C32.5329 12.5812 30.0184 13.1462 29.4887 13.8737L29.4816 13.8808Z" fill="white"/>
<path id="Vector_5" fill-rule="evenodd" clip-rule="evenodd" d="M3.87769 6.03363C3.87769 7.8418 4.19553 9.1061 5.40333 10.3704C8.6877 13.8102 14.3947 11.4158 14.3947 6.37972C14.3947 1.6474 8.86428 -0.980096 5.49515 2.38903C4.75352 3.13067 3.88475 4.59274 3.88475 6.03363H3.87769Z" fill="white"/>
<path id="Vector_6" fill-rule="evenodd" clip-rule="evenodd" d="M29.7359 6.37973C29.7359 11.1897 35.1887 13.8949 38.6779 10.4128C40.7969 8.30091 40.811 4.76227 38.6779 2.43849C38.0069 1.71098 36.4601 0.863403 35.0757 0.863403C32.1092 0.863403 29.7289 3.41321 29.7289 6.37973H29.7359Z" fill="white"/>
</g>
</g>
</g>
<defs>
<clipPath id="clip0_35_438">
<rect width="44.1377" height="25" fill="white"/>
</clipPath>
</defs>
</svg>
