<svg width="27" height="25" viewBox="0 0 27 25" fill="none" xmlns="http://www.w3.org/2000/svg">
<g id="D:_x005c_&#208;&#160;&#208;&#176;&#208;&#177;&#208;&#190;&#209;&#130;&#208;&#176;_x005c_&#208;&#186;&#208;&#190;&#209;&#128;&#209;&#129;_x005c_&#209;&#129;&#208;&#176;&#208;&#185;&#209;&#130;_x005c_ezgif.com_gif_maker-_2_.gif_x0020_3">
<g id="_1423609328">
<path id="Vector" fill-rule="evenodd" clip-rule="evenodd" d="M6.35675 12.653C6.35675 12.1158 6.42807 11.6657 6.87024 11.2883C7.54063 10.7221 8.4535 10.7656 9.05257 11.3754C9.63738 11.9706 9.63738 13.0304 9.05257 13.6111C8.78156 13.887 8.49629 14.0467 7.9828 14.0902C7.56916 14.1338 7.11272 13.887 6.87024 13.6837C6.64202 13.495 6.35675 13.0304 6.35675 12.6239V12.653ZM26.0263 12.3481V12.6384C25.9692 13.0595 25.6554 13.466 25.0991 13.5821C24.6142 13.6692 12.2476 13.6111 11.4631 13.6111C11.4346 13.887 11.1065 14.4967 10.9782 14.6855C10.4789 15.3823 10.0082 15.7453 9.238 16.0647C8.28234 16.4567 6.92729 16.355 6.07148 15.7743C5.44388 15.3533 5.11582 15.0484 4.74496 14.3806C4.45969 13.887 4.5738 13.9886 4.40263 13.6111C3.57534 13.6111 2.73379 13.6111 1.9065 13.6111C1.46433 13.6111 1.16479 13.5531 0.908048 13.3498C0.665567 13.1611 0.522931 12.8707 0.508667 12.5949V12.3916C0.537194 12.1013 0.665567 11.8254 0.908048 11.6367C1.16479 11.4334 1.45007 11.3754 1.9065 11.3754C2.73379 11.3754 3.57534 11.3754 4.40263 11.3754C4.48822 11.2012 4.53101 10.9834 4.63085 10.7947C4.91612 10.2575 5.18713 9.90906 5.65783 9.50256C5.78621 9.40093 5.9859 9.27027 6.12853 9.16864C7.3552 8.38467 9.13815 8.57341 10.2365 9.47352C10.6929 9.85099 11.4346 10.7801 11.4774 11.3609C12.3475 11.3609 24.6142 11.2883 25.1562 11.4044C25.6982 11.5206 25.9977 11.9125 26.0548 12.3336L26.0263 12.3481Z" fill="white"/>
<path id="Vector_2" fill-rule="evenodd" clip-rule="evenodd" d="M16.9831 3.86957C16.9831 2.9259 17.7533 2.24355 18.3809 2.24355H18.7232C19.3936 2.24355 20.1211 2.98397 20.1211 3.66632V3.92764C20.1211 4.75516 19.4079 5.45203 18.5236 5.45203C17.6963 5.45203 16.9831 4.71161 16.9831 3.88409V3.86957ZM26.012 3.75342V3.94216C25.9834 4.26155 25.8265 4.56643 25.5698 4.72613C25.256 4.92938 25.0848 4.92938 24.5713 4.92938C23.7583 4.92938 22.9453 4.92938 22.1323 4.92938C21.7614 5.71335 21.7471 6.0763 20.9056 6.77316C20.0783 7.45551 19.4792 7.6152 18.3381 7.6152C17.0116 7.6152 15.7992 6.62798 15.2144 5.45203C15.1146 5.26329 15.086 5.08908 14.9862 4.91486C11.0922 4.91486 7.19825 4.91486 3.30428 4.91486C2.4342 4.91486 0.46582 5.24878 0.46582 3.8986C0.46582 2.37422 2.02055 2.72265 3.36133 2.72265H14.9862C15.1716 2.3597 15.1003 2.24355 15.5139 1.6338C16.6836 -0.108357 19.1226 -0.58745 20.8771 0.835312C21.3905 1.24181 21.9611 2.06934 22.118 2.72265C22.931 2.72265 23.744 2.72265 24.5571 2.72265C25.042 2.72265 25.313 2.70813 25.5983 2.94042C25.8551 3.15819 25.9834 3.43403 26.012 3.72439V3.75342Z" fill="white"/>
<path id="Vector_3" fill-rule="evenodd" clip-rule="evenodd" d="M16.9831 21.1895C16.9831 19.6942 18.7375 19.0844 19.6219 19.9845C20.7772 21.1605 19.793 22.772 18.7375 22.772C18.167 22.772 17.8817 22.743 17.4253 22.2784C17.1828 22.0316 16.9831 21.6686 16.9831 21.2041V21.1895ZM26.012 21.0734V21.2621C25.9834 21.567 25.8551 21.8574 25.5698 22.0751C25.2845 22.2929 25.042 22.2639 24.5571 22.2639C23.744 22.2639 22.931 22.2639 22.118 22.2639C22.0467 22.5687 21.7757 23.1349 21.6045 23.3672C19.6361 26.0095 16.2842 25.1675 15.2001 22.8155C15.1146 22.6123 15.086 22.4526 14.9862 22.2784H1.36443C0.765356 22.2058 0.46582 21.6977 0.46582 21.2041C0.46582 20.6959 0.77962 20.1878 1.42148 20.1152H14.9862C15.0718 19.941 15.1146 19.7668 15.2144 19.578C15.5567 18.8812 15.7279 18.765 16.1986 18.3005C16.7977 17.6907 17.7676 17.4294 18.7375 17.4294C19.6504 17.4294 20.7772 17.9956 21.3192 18.6634C21.9326 19.4038 21.8185 19.4619 22.1323 20.1152C22.9453 20.1152 23.7583 20.1152 24.5713 20.1152C25.0848 20.1152 25.2845 20.1152 25.5983 20.333C25.8408 20.5072 25.9977 20.7976 26.012 21.1024V21.0734Z" fill="white"/>
</g>
</g>
</svg>
