<svg width="17" height="15" viewBox="0 0 17 15" fill="none" xmlns="http://www.w3.org/2000/svg">
<g id="D:_x005c_&#208;&#160;&#208;&#176;&#208;&#177;&#208;&#190;&#209;&#130;&#208;&#176;_x005c_&#208;&#186;&#208;&#190;&#209;&#128;&#209;&#129;_x005c_&#209;&#129;&#208;&#176;&#208;&#185;&#209;&#130;_x005c_ezgif.com_gif_maker-_2_.gif_x0020_3">
<g id="_1423609328">
<path id="Vector" fill-rule="evenodd" clip-rule="evenodd" d="M4.36066 7.59169C4.36066 7.26939 4.40345 6.99935 4.66875 6.77287C5.07098 6.43315 5.61871 6.45929 5.97815 6.82514C6.32904 7.18228 6.32904 7.81817 5.97815 8.1666C5.81555 8.3321 5.64438 8.42792 5.33629 8.45405C5.0881 8.48019 4.81424 8.3321 4.66875 8.21015C4.53182 8.09691 4.36066 7.81817 4.36066 7.57427V7.59169ZM16.1624 7.40876V7.58298C16.1281 7.83559 15.9399 8.07949 15.6061 8.14918C15.3151 8.20144 7.89518 8.1666 7.42448 8.1666C7.40736 8.3321 7.21053 8.69796 7.1335 8.8112C6.83397 9.22932 6.55155 9.44708 6.08941 9.63872C5.51601 9.87391 4.70298 9.81294 4.18949 9.46451C3.81293 9.21189 3.6161 9.02897 3.39358 8.62827C3.22242 8.3321 3.29089 8.39308 3.18819 8.1666C2.69181 8.1666 2.18688 8.1666 1.69051 8.1666C1.4252 8.1666 1.24548 8.13176 1.09144 8.00981C0.945947 7.89657 0.860365 7.72235 0.851807 7.55684V7.43489C0.868923 7.26068 0.945947 7.09517 1.09144 6.98193C1.24548 6.85998 1.41665 6.82514 1.69051 6.82514C2.18688 6.82514 2.69181 6.82514 3.18819 6.82514C3.23954 6.72061 3.26521 6.58995 3.32512 6.47671C3.49628 6.15441 3.65889 5.94535 3.94131 5.70145C4.01833 5.64047 4.13814 5.56208 4.22373 5.5011C4.95973 5.03072 6.0295 5.14396 6.68848 5.68403C6.96234 5.91051 7.40736 6.468 7.43304 6.81643C7.95509 6.81643 15.3151 6.77287 15.6403 6.84256C15.9655 6.91225 16.1453 7.14744 16.1795 7.40005L16.1624 7.40876Z" fill="#34A343"/>
<path id="Vector_2" fill-rule="evenodd" clip-rule="evenodd" d="M10.7365 2.32174C10.7365 1.75554 11.1986 1.34613 11.5752 1.34613H11.7806C12.1828 1.34613 12.6193 1.79038 12.6193 2.19979V2.35658C12.6193 2.8531 12.1914 3.27122 11.6608 3.27122C11.1644 3.27122 10.7365 2.82697 10.7365 2.33045V2.32174ZM16.1538 2.25205V2.36529C16.1367 2.55693 16.0425 2.73986 15.8885 2.83568C15.7002 2.95763 15.5975 2.95763 15.2894 2.95763C14.8016 2.95763 14.3138 2.95763 13.826 2.95763C13.6035 3.42801 13.5949 3.64578 13.09 4.0639C12.5936 4.4733 12.2342 4.56912 11.5495 4.56912C10.7536 4.56912 10.0261 3.97679 9.67526 3.27122C9.61535 3.15798 9.59824 3.05345 9.53833 2.94892C7.20195 2.94892 4.86557 2.94892 2.52919 2.94892C2.00714 2.94892 0.826111 3.14927 0.826111 2.33916C0.826111 1.42453 1.75895 1.63359 2.56342 1.63359H9.53833C9.64958 1.41582 9.60679 1.34613 9.85498 0.98028C10.5568 -0.065014 12.0202 -0.35247 13.0729 0.501187C13.3809 0.745089 13.7233 1.2416 13.8174 1.63359C14.3052 1.63359 14.793 1.63359 15.2809 1.63359C15.5718 1.63359 15.7344 1.62488 15.9056 1.76425C16.0597 1.89491 16.1367 2.06042 16.1538 2.23463V2.25205Z" fill="#34A343"/>
<path id="Vector_3" fill-rule="evenodd" clip-rule="evenodd" d="M10.7365 12.7137C10.7365 11.8165 11.7891 11.4507 12.3197 11.9907C13.0129 12.6963 12.4224 13.6632 11.7891 13.6632C11.4468 13.6632 11.2756 13.6458 11.0018 13.367C10.8563 13.219 10.7365 13.0012 10.7365 12.7224V12.7137ZM16.1538 12.644V12.7573C16.1367 12.9402 16.0597 13.1144 15.8885 13.2451C15.7173 13.3758 15.5718 13.3583 15.2809 13.3583C14.793 13.3583 14.3052 13.3583 13.8174 13.3583C13.7746 13.5413 13.612 13.881 13.5093 14.0204C12.3283 15.6057 10.3171 15.1005 9.6667 13.6893C9.61535 13.5674 9.59824 13.4716 9.53833 13.367H1.36528C1.00583 13.3235 0.826111 13.0186 0.826111 12.7224C0.826111 12.4176 1.01439 12.1127 1.39951 12.0691H9.53833C9.58968 11.9646 9.61535 11.8601 9.67526 11.7468C9.88066 11.3287 9.98335 11.259 10.2658 10.9803C10.6252 10.6144 11.2072 10.4576 11.7891 10.4576C12.3369 10.4576 13.0129 10.7974 13.3382 11.1981C13.7062 11.6423 13.6377 11.6772 13.826 12.0691C14.3138 12.0691 14.8016 12.0691 15.2894 12.0691C15.5975 12.0691 15.7173 12.0691 15.9056 12.1998C16.0511 12.3043 16.1452 12.4785 16.1538 12.6615V12.644Z" fill="#34A343"/>
</g>
</g>
</svg>
