<svg width="26" height="25" viewBox="0 0 26 25" fill="none" xmlns="http://www.w3.org/2000/svg">
<g id="D:_x005c_&#208;&#160;&#208;&#176;&#208;&#177;&#208;&#190;&#209;&#130;&#208;&#176;_x005c_&#208;&#186;&#208;&#190;&#209;&#128;&#209;&#129;_x005c_&#209;&#129;&#208;&#176;&#208;&#185;&#209;&#130;_x005c_ezgif.com_gif_maker-_2_.gif_x0020_3">
<g id="_1423609328">
<path id="Vector" fill-rule="evenodd" clip-rule="evenodd" d="M5.89106 12.6529C5.89106 12.1157 5.96238 11.6657 6.40455 11.2882C7.07494 10.722 7.98781 10.7656 8.58689 11.3753C9.17169 11.9706 9.17169 13.0304 8.58689 13.6111C8.31588 13.8869 8.0306 14.0466 7.51711 14.0902C7.10347 14.1337 6.64703 13.8869 6.40455 13.6837C6.17633 13.4949 5.89106 13.0304 5.89106 12.6239V12.6529ZM25.5606 12.348V12.6384C25.5036 13.0594 25.1898 13.4659 24.6335 13.5821C24.1485 13.6692 11.7819 13.6111 10.9974 13.6111C10.9689 13.8869 10.6408 14.4967 10.5125 14.6854C10.0132 15.3823 9.54255 15.7452 8.77231 16.0646C7.81665 16.4566 6.4616 16.355 5.60579 15.7743C4.97819 15.3532 4.65012 15.0484 4.27927 14.3805C3.994 13.8869 4.1081 13.9886 3.93694 13.6111C3.10965 13.6111 2.2681 13.6111 1.4408 13.6111C0.998632 13.6111 0.699096 13.553 0.442351 13.3498C0.199869 13.161 0.0572324 12.8707 0.0429688 12.5948V12.3916C0.071496 12.1012 0.199869 11.8254 0.442351 11.6366C0.699096 11.4334 0.984369 11.3753 1.4408 11.3753C2.2681 11.3753 3.10965 11.3753 3.93694 11.3753C4.02252 11.2011 4.06531 10.9833 4.16516 10.7946C4.45043 10.2574 4.72144 9.909 5.19214 9.5025C5.32051 9.40087 5.5202 9.27021 5.66284 9.16858C6.88951 8.38461 8.67247 8.57334 9.77077 9.47346C10.2272 9.85093 10.9689 10.7801 11.0117 11.3608C11.8818 11.3608 24.1485 11.2882 24.6905 11.4044C25.2325 11.5205 25.5321 11.9125 25.5891 12.3335L25.5606 12.348Z" fill="#4D4D4D"/>
<path id="Vector_2" fill-rule="evenodd" clip-rule="evenodd" d="M16.5173 3.86957C16.5173 2.9259 17.2875 2.24356 17.9151 2.24356H18.2575C18.9278 2.24356 19.6553 2.98398 19.6553 3.66632V3.92764C19.6553 4.75517 18.9421 5.45203 18.0578 5.45203C17.2305 5.45203 16.5173 4.71162 16.5173 3.88409V3.86957ZM25.5462 3.75343V3.94216C25.5176 4.26156 25.3607 4.56644 25.104 4.72613C24.7902 4.92939 24.619 4.92939 24.1055 4.92939C23.2925 4.92939 22.4795 4.92939 21.6665 4.92939C21.2956 5.71336 21.2813 6.07631 20.4398 6.77317C19.6125 7.45552 19.0134 7.61521 17.8723 7.61521C16.5458 7.61521 15.3334 6.62799 14.7486 5.45203C14.6488 5.2633 14.6202 5.08908 14.5204 4.91487C10.6264 4.91487 6.73244 4.91487 2.83846 4.91487C1.96838 4.91487 0 5.24878 0 3.89861C0 2.37422 1.55474 2.72265 2.89552 2.72265H14.5204C14.7058 2.3597 14.6345 2.24356 15.0481 1.6338C16.2178 -0.108357 18.6568 -0.58745 20.4113 0.835313C20.9248 1.24182 21.4953 2.06934 21.6522 2.72265C22.4652 2.72265 23.2783 2.72265 24.0913 2.72265C24.5762 2.72265 24.8473 2.70813 25.1325 2.94042C25.3893 3.15819 25.5176 3.43403 25.5462 3.72439V3.75343Z" fill="#4D4D4D"/>
<path id="Vector_3" fill-rule="evenodd" clip-rule="evenodd" d="M16.5173 21.1895C16.5173 19.6941 18.2717 19.0844 19.1561 19.9845C20.3114 21.1604 19.3272 22.7719 18.2717 22.7719C17.7012 22.7719 17.4159 22.7429 16.9595 22.2783C16.717 22.0315 16.5173 21.6686 16.5173 21.204V21.1895ZM25.5462 21.0733V21.2621C25.5176 21.5669 25.3893 21.8573 25.104 22.0751C24.8187 22.2928 24.5762 22.2638 24.0913 22.2638C23.2783 22.2638 22.4652 22.2638 21.6522 22.2638C21.5809 22.5687 21.3099 23.1349 21.1387 23.3672C19.1703 26.0095 15.8184 25.1674 14.7343 22.8155C14.6488 22.6122 14.6202 22.4525 14.5204 22.2783H0.898609C0.299536 22.2057 0 21.6976 0 21.204C0 20.6959 0.3138 20.1877 0.955664 20.1151H14.5204C14.606 19.9409 14.6488 19.7667 14.7486 19.578C15.0909 18.8811 15.2621 18.765 15.7328 18.3004C16.3319 17.6906 17.3018 17.4293 18.2717 17.4293C19.1846 17.4293 20.3114 17.9955 20.8534 18.6634C21.4668 19.4038 21.3527 19.4618 21.6665 20.1151C22.4795 20.1151 23.2925 20.1151 24.1055 20.1151C24.619 20.1151 24.8187 20.1151 25.1325 20.3329C25.375 20.5071 25.5319 20.7975 25.5462 21.1024V21.0733Z" fill="#4D4D4D"/>
</g>
</g>
</svg>
