<svg width="22" height="25" viewBox="0 0 22 25" fill="none" xmlns="http://www.w3.org/2000/svg">
<path fill-rule="evenodd" clip-rule="evenodd" d="M10.7106 0.0261233H11.0828C11.7424 0.039185 12.3955 0.130617 13.0421 0.287356C13.9564 0.515935 15.0993 1.01881 15.8503 1.58046C18.0904 3.24582 19.4553 5.61651 19.4553 8.56191C20.7158 8.58803 21.8456 9.74399 21.8456 11.2461V15.9809C21.8456 16.7842 21.5387 17.4046 21.1599 17.8357C20.6766 18.3843 20.0953 18.5149 19.4553 18.6651C19.4553 22.5052 17.0193 23.7853 13.7017 23.7853V24.1249C13.7017 24.5624 13.2641 25 12.8265 25H9.70481C9.43051 25 9.13662 24.8302 9.01254 24.6669C8.88192 24.5037 8.77743 24.2098 8.77743 23.9224C8.77743 22.8579 8.56191 21.5321 9.84848 21.5321H12.7286C12.9963 21.5321 13.2968 21.6954 13.4404 21.8456C13.7213 22.146 13.7082 22.3811 13.7082 22.7991C14.7662 22.7991 16.425 22.5444 17.2087 21.9044C17.6332 21.5583 17.9467 21.1729 18.1426 20.6439C18.3712 20.0366 18.4888 19.4031 18.4888 18.652C17.9141 18.652 17.4112 18.75 17.2218 18.4561C17.1695 18.3712 17.1238 18.2145 17.1238 18.0643V9.13662C17.1238 8.37252 17.79 8.50313 18.4888 8.50313C18.4888 7.71943 18.43 7.23615 18.2145 6.47858C17.803 5.0222 16.8561 3.50052 15.6479 2.6058C15.0209 2.14211 14.7139 1.92006 13.9498 1.57393C12.5849 0.966562 10.7301 0.777168 9.26724 1.13636C9.01254 1.19514 8.78396 1.26045 8.54232 1.33882C8.34639 1.40413 8.06557 1.50209 7.86964 1.59352C7.13819 1.93312 5.93652 2.67111 5.44018 3.31113C5.27691 3.52011 5.13323 3.62461 4.81322 4.04911C3.85972 5.31609 3.36337 6.90308 3.36337 8.50313C4.06217 8.50313 4.72832 8.37252 4.72832 9.13662V18.0643C4.72832 18.8414 4.02952 18.6978 3.26541 18.6978C1.35188 18.6978 0 17.9206 0 15.8699V11.233C0 10.2338 0.385319 9.58725 1.01228 9.07132C1.13636 8.97335 1.26698 8.90804 1.41066 8.82967C1.67189 8.69253 2.03109 8.55538 2.39028 8.54232V8.05251C2.39028 6.55695 3.16745 4.63689 4.00993 3.52011C4.72832 2.56661 5.39446 1.94619 6.38715 1.30616C7.68678 0.463689 9.1954 0.0326541 10.7301 0L10.7106 0.0261233Z" fill="#FF6633"/>
</svg>
