<svg width="23" height="25" viewBox="0 0 23 25" fill="none" xmlns="http://www.w3.org/2000/svg">
<path fill-rule="evenodd" clip-rule="evenodd" d="M18.0101 9.75807V23.5896C18.0101 24.2194 18.6844 24.9824 19.512 24.9824C20.5334 24.9824 21.3085 25.1318 21.9343 24.5626C22.1241 24.389 22.4067 23.9408 22.4067 23.5896V9.86708C22.4067 9.03945 21.5912 8.36523 20.9573 8.36523H19.4555C18.7691 8.36523 18.0061 9.07982 18.0061 9.75807H18.0101Z" fill="#FF6633"/>
<path fill-rule="evenodd" clip-rule="evenodd" d="M6.00342 14.3684V23.5894C6.00342 24.2192 6.67763 24.9823 7.50526 24.9823C8.52668 24.9823 9.30182 25.1316 9.92759 24.5624C10.1173 24.3888 10.3999 23.9407 10.3999 23.5894V14.3684C10.3999 13.7104 9.66517 12.9756 9.00711 12.9756H7.4003C6.74223 12.9756 6.00746 13.7104 6.00746 14.3684H6.00342Z" fill="#FF6633"/>
<path fill-rule="evenodd" clip-rule="evenodd" d="M18.5998 1.55837C18.5998 2.06706 18.733 2.11954 18.8137 2.47078C18.624 2.59997 18.4867 2.76953 18.3172 2.93909L17.1383 4.17448C17.0293 4.2956 17.0172 4.34405 16.8961 4.4692L14.9501 6.49185C14.4414 6.37477 14.0539 6.14868 13.3635 6.56452C12.9436 6.81886 12.988 6.94805 12.8064 7.08128C12.5884 7.0288 12.3744 6.95613 12.1402 6.88749L10.0449 6.3021C9.69367 6.20117 9.84304 6.15272 9.73 5.75707C9.47566 4.84466 8.08685 4.09778 7.08159 5.10708C6.33067 5.86204 6.60923 6.37477 6.7465 6.97227C6.5729 7.08935 6.46389 7.23873 6.30644 7.38811L3.04841 10.3474C2.74965 10.2788 2.60431 10.1334 2.19252 10.1334C0.727007 10.1334 0.0770146 11.9098 1.04998 12.8828C2.04314 13.88 3.79933 13.1896 3.79933 11.7402C3.79933 11.4132 3.6984 11.2477 3.63784 10.9893C3.75088 10.9126 3.75896 10.8843 3.86796 10.7915L7.33593 7.61419C8.31294 8.13096 9.38684 7.6263 9.53218 7.07724C10.3961 7.2791 11.6396 7.71512 12.5884 7.93717C12.5884 10.0365 15.806 10.0688 15.806 7.93717C15.806 7.52537 15.6607 7.376 15.592 7.07724C15.8464 6.90768 19.3507 3.05617 19.4516 3.05617C19.6696 3.05617 19.9038 3.21766 20.1501 3.21766C21.0625 3.21766 21.8134 2.52326 21.8134 1.55433C21.8134 0.78322 21.1109 0 20.364 0H20.0411C19.2942 0 18.5917 0.78322 18.5917 1.55433L18.5998 1.55837Z" fill="#FF6633"/>
<path fill-rule="evenodd" clip-rule="evenodd" d="M12.0068 16.2458V23.5895C12.0068 24.2193 12.6811 24.9823 13.5087 24.9823C14.5301 24.9823 15.3052 25.1317 15.931 24.5624C16.1208 24.3888 16.4034 23.9407 16.4034 23.5895V16.2458C16.4034 15.8299 16.1369 15.4504 15.9108 15.2405C15.2972 14.6712 14.5301 14.8004 13.6177 14.8004C12.7901 14.8004 12.0109 15.5029 12.0109 16.2498L12.0068 16.2458Z" fill="#FF6633"/>
<path fill-rule="evenodd" clip-rule="evenodd" d="M0 19.3019V23.5894C0 24.2919 0.771109 24.9823 1.50184 24.9823C2.52326 24.9823 3.29841 25.1316 3.92418 24.5624C4.11392 24.3888 4.39653 23.9407 4.39653 23.5894V19.3019C4.39653 18.8941 4.10585 18.4743 3.87573 18.2684C3.2863 17.7476 2.56363 17.8525 1.71582 17.8525C0.714588 17.8525 0 18.5913 0 19.3019Z" fill="#FF6633"/>
</svg>
