<svg width="18" height="20" viewBox="0 0 18 20" fill="none" xmlns="http://www.w3.org/2000/svg">
<path fill-rule="evenodd" clip-rule="evenodd" d="M11.7347 17.0312V8.9838C11.7347 8.05609 12.9062 8.05609 12.9062 8.9838V16.9522C12.9062 17.9184 11.7347 17.8089 11.7347 17.0312ZM8.21932 17.0312V8.90583C8.21932 8.12715 9.39079 8.0176 9.39079 8.9838V16.9522C9.39079 17.9184 8.21932 17.8089 8.21932 17.0312ZM4.7039 17.0312V8.90583C4.7039 8.12715 5.87537 8.0176 5.87537 8.9838V16.9522C5.87537 17.9184 4.7039 17.8089 4.7039 17.0312ZM3.88376 19.9998H13.7263C14.2583 19.9998 14.7399 19.6465 14.9827 19.3425C15.2768 18.9754 15.3903 18.4454 15.4061 17.8118C15.413 17.5375 15.4712 17.2128 15.4841 16.9522L15.7683 13.3697C15.8048 13.0963 15.8078 12.7795 15.8413 12.4666L16.3042 7.10864H1.30493L1.46087 8.86635C1.47962 9.43976 1.60002 10.0901 1.61779 10.6635L1.76385 12.4321C1.80431 12.741 1.79148 13.0312 1.8359 13.3361C1.88031 13.6411 1.86353 13.9362 1.90794 14.2411L2.20402 17.8128C2.21981 18.4346 2.32738 18.9478 2.60964 19.3208C2.84947 19.6376 3.34984 19.9998 3.88376 19.9998Z" fill="#FF6633"/>
<path fill-rule="evenodd" clip-rule="evenodd" d="M7.35986 1.17148H10.2506C10.9355 1.17148 10.8852 1.87417 11.1102 2.34296H6.50025C6.72527 1.87417 6.67494 1.17148 7.35986 1.17148ZM5.25081 2.34296C4.10598 2.34296 2.95818 2.34888 1.81335 2.34197C1.24094 2.33802 0.861959 2.5285 0.57279 2.82063C0.391197 3.00321 0.325073 3.0565 0.19776 3.30521C-0.078579 3.84703 0.0161656 4.63953 0.0161656 5.38959C0.0161656 5.67974 0.309282 5.85838 0.602398 5.85838H17.086C17.3258 5.85838 17.5933 5.58993 17.5933 5.35011C17.5933 4.13422 17.764 3.5549 17.0366 2.82063C16.7416 2.52258 16.3833 2.33901 15.7971 2.34197C14.6522 2.34888 13.5044 2.34296 12.3586 2.34296C12.2836 2.01924 11.9589 1.06292 11.7892 0.803356C11.5138 0.382926 10.9957 0 10.444 0H7.16346C6.62855 0 6.10154 0.377005 5.83408 0.780656C5.6515 1.05798 5.33075 1.98964 5.24883 2.34394L5.25081 2.34296Z" fill="#FF6633"/>
</svg>
