<svg width="50" height="50" viewBox="0 0 50 50" fill="none" xmlns="http://www.w3.org/2000/svg">
<g clip-path="url(#clip0_35_768)">
<path fill-rule="evenodd" clip-rule="evenodd" d="M23.9256 30.0777C27.0267 30.0777 28.3235 30.0589 31.3369 31.0675C33.5735 31.8131 34.8327 32.5648 36.6433 33.7677L38.0153 34.839C38.861 35.5908 39.6755 36.3676 40.3771 37.2635C40.5463 37.4765 40.6152 37.5266 40.7844 37.7334C41.2668 38.3473 41.6677 39.0114 42.0937 39.6442L40.6027 41.1853C36.825 45.0006 30.7794 47.4627 25.3916 47.4627C22.3531 47.4627 19.6467 47.0618 16.9904 45.9967C14.616 45.0507 13.1375 44.2551 11.0763 42.6325C10.7693 42.3944 10.5501 42.2253 10.2744 41.9684L8.66433 40.4586C8.38241 40.1767 8.22579 39.8634 7.90628 39.6504C8.33229 39.0177 8.70818 38.4037 9.19058 37.8085L10.6628 36.0606C12.7991 33.8993 15.6183 32.0762 18.5127 31.1177C19.9787 30.6353 22.0398 30.0777 23.9193 30.0777H23.9256ZM17.5793 20.6052C17.5793 18.8385 17.5417 18.2371 18.3624 16.6019C20.624 12.085 26.7573 11.2141 30.1591 14.5721C31.9947 16.3827 32.427 17.9739 32.427 20.6052C32.427 21.9835 31.6251 23.8441 30.6979 24.8277C28.8498 26.7886 27.4214 27.4402 24.5207 27.4402C22.7478 27.4402 21.0312 26.5004 19.7782 25.3414C18.6067 24.2576 17.5855 22.2341 17.5855 20.5989L17.5793 20.6052ZM14.9417 19.9223C14.9417 22.2528 15.9441 25.0971 17.5542 26.6884C17.8424 26.9703 18.0491 27.1833 18.3373 27.4715C18.5127 27.6532 18.5628 27.697 18.7508 27.8349L19.2394 28.2233C17.9614 28.524 16.3075 29.1567 15.2362 29.6893C13.4695 30.5601 10.218 32.7027 8.77083 34.3566C8.50771 34.651 8.43253 34.7889 8.13181 35.0896L6.91016 36.5994C6.67836 36.9064 6.55306 37.2134 6.25235 37.4076C2.06115 31.1552 1.29683 22.6789 4.56083 15.6935C5.70104 13.2627 6.11452 12.7177 7.71833 10.644C8.72698 9.3472 9.96742 8.26338 11.2455 7.2422C11.5336 7.0104 11.7279 6.87884 12.0286 6.65957C13.457 5.6008 15.8 4.38542 17.4915 3.82158C23.2866 1.88573 28.831 2.09873 34.3754 4.59216C42.0248 8.02531 47.4627 16.0694 47.4627 24.6147C47.4627 29.8772 46.0155 34.0246 43.7539 37.4076C43.472 37.2196 42.927 36.3112 42.5511 35.8727C42.4132 35.7098 42.3694 35.691 42.2316 35.5093C40.3897 33.1475 37.4828 31.0487 34.8327 29.7206C34.1874 29.4011 33.5735 29.1693 32.9094 28.9062C32.2955 28.6618 31.4434 28.3799 30.7606 28.2233C30.8295 28.1669 30.8044 28.1857 30.9172 28.0855L31.5687 27.5655C32.3143 26.8513 33.2164 25.9241 33.6925 25.0031C35.2901 21.9083 35.5156 19.2958 34.1937 16.0005C33.9181 15.3176 33.2289 14.1962 32.7403 13.6449C30.9046 11.6026 28.6054 9.96116 25.0031 9.96116C21.4384 9.96116 18.519 11.8156 16.8275 14.1837L15.894 15.7875C15.4304 16.8588 14.948 18.4375 14.948 19.9161L14.9417 19.9223ZM0 24.22C0 27.9414 0.231801 30.0025 1.42839 33.4357C2.11753 35.4154 3.36424 37.7897 4.53577 39.4124C7.24847 43.1588 10.2556 45.6396 14.3591 47.6569C16.6771 48.8034 20.6741 50 24.1261 50C27.8912 50 29.9461 49.7933 33.4419 48.5716C38.3724 46.855 42.3694 43.6161 45.4329 39.4687C47.9639 36.0419 50.0063 30.6102 50.0063 25.8802C50.0063 21.3695 49.4738 18.1243 47.6945 14.4218C44.9881 8.78963 41.1665 5.13094 35.6472 2.34306C33.0097 1.00865 28.8748 0 25.8802 0C22.115 0 20.0601 0.206741 16.5643 1.42839C15.8689 1.67272 15.0545 1.99223 14.4218 2.31174L11.5274 3.90928C7.42388 6.35885 4.43553 10.1992 2.31174 14.4218C0.971056 17.0781 0 21.2129 0 24.22Z" fill="#34A343"/>
</g>
<defs>
<clipPath id="clip0_35_768">
<rect width="50" height="50" fill="white"/>
</clipPath>
</defs>
</svg>
