<svg width="35" height="35" viewBox="0 0 35 35" fill="none" xmlns="http://www.w3.org/2000/svg">
<g id="&#209;&#142;&#208;&#183;&#208;&#181;&#209;&#128; &#208;&#177;&#208;&#181;&#208;&#187; 1" clip-path="url(#clip0_35_421)">
<g id="&#208;&#161;&#208;&#187;&#208;&#190;&#208;&#185;_x0020_1">
<path id="Vector" fill-rule="evenodd" clip-rule="evenodd" d="M16.7377 21.0436C18.9157 21.0436 19.8205 21.0268 21.9315 21.7305C23.4897 22.2499 24.3777 22.7693 25.651 23.6238L26.606 24.3777C27.1924 24.8971 27.7621 25.45 28.2647 26.0699C28.382 26.2207 28.4323 26.2542 28.5495 26.405C28.8846 26.8406 29.1695 27.293 29.471 27.7454L28.4323 28.8176C25.7851 31.4816 21.5629 33.2073 17.7932 33.2073C15.6654 33.2073 13.7721 32.9225 11.9124 32.1853C10.2537 31.5151 9.21493 30.9622 7.77405 29.8229C7.55625 29.6554 7.40546 29.5381 7.22116 29.3538L6.09861 28.2983C5.89756 28.0972 5.79703 27.8794 5.56247 27.7286C5.86405 27.293 6.13212 26.8574 6.46721 26.4385L7.50598 25.2154C8.99713 23.7075 10.9741 22.4342 13.0014 21.764C14.0235 21.4289 15.4643 21.0436 16.7879 21.0436H16.7377ZM12.2977 14.4088C12.2977 13.169 12.2642 12.7501 12.8506 11.6108C14.4256 8.44426 18.7314 7.8411 21.1106 10.1867C22.4007 11.4601 22.7022 12.5659 22.7022 14.4088C22.7022 15.3638 22.1326 16.6707 21.4959 17.3576C20.2058 18.7315 19.2006 19.1838 17.1733 19.1838C15.9335 19.1838 14.7271 18.5304 13.8559 17.7095C13.0349 16.9555 12.3145 15.5314 12.3145 14.3921L12.2977 14.4088ZM10.4548 13.923C10.4548 15.5481 11.1584 17.5419 12.281 18.6645C12.482 18.8655 12.6328 19.0163 12.8339 19.2174C12.9512 19.3346 13.0014 19.3681 13.1187 19.4687L13.4538 19.7367C12.5658 19.9378 11.393 20.3902 10.6558 20.7588C9.41599 21.3619 7.15414 22.8698 6.13212 24.0259C5.94782 24.2269 5.89756 24.3275 5.67975 24.5285L4.82527 25.584C4.65773 25.8018 4.57396 26.0197 4.37291 26.1537C1.44088 21.7808 0.904739 15.8497 3.18334 10.9574C3.9708 9.24848 4.27238 8.87988 5.39493 7.42224C6.09861 6.5175 6.96984 5.76355 7.85783 5.04311C8.05888 4.87557 8.19291 4.7918 8.41072 4.64101C9.41599 3.90381 11.0579 3.04934 12.2307 2.66398C16.2853 1.30688 20.1723 1.45767 24.0426 3.20013C29.3873 5.59601 33.2073 11.2255 33.2073 17.2068C33.2073 20.8928 32.202 23.7913 30.6103 26.1537C30.4093 26.0197 30.0239 25.383 29.7726 25.0814C29.6721 24.9641 29.6553 24.9474 29.5548 24.8301C28.2647 23.1714 26.2374 21.7138 24.3777 20.7755C23.9253 20.5577 23.4897 20.3902 23.0373 20.2059C22.6017 20.0383 22.0153 19.8373 21.5294 19.72C21.5797 19.6865 21.5629 19.6865 21.6467 19.6195L22.0991 19.2509C22.6185 18.7482 23.2551 18.0948 23.5902 17.4581C24.7128 15.2968 24.8636 13.4538 23.9421 11.1585C23.7578 10.6894 23.2719 9.88514 22.9201 9.51655C21.63 8.09242 20.0215 6.93636 17.5084 6.93636C15.012 6.93636 12.9679 8.24321 11.7784 9.88514L11.1249 11.0077C10.8066 11.7616 10.4548 12.8674 10.4548 13.9062V13.923ZM0 16.9388C0 19.5357 0.167544 20.9766 1.00527 23.3892C1.49114 24.7798 2.36237 26.4385 3.18334 27.5778C5.07659 30.2083 7.18765 31.934 10.0527 33.3413C11.6778 34.1456 14.4758 34.9833 16.8885 34.9833C19.5189 34.9833 20.9598 34.8325 23.4059 33.978C26.8573 32.7717 29.6553 30.5098 31.7999 27.6113C33.5759 25.2154 35 21.4122 35 18.0948C35 14.945 34.6314 12.6664 33.3916 10.0694C31.4983 6.13215 28.8176 3.56872 24.9641 1.62521C23.1211 0.686962 20.2226 -0.0167236 18.1283 -0.0167236C15.4978 -0.0167236 14.057 0.134066 11.6108 0.988542C11.1249 1.15609 10.5553 1.39065 10.1029 1.60846L8.07563 2.731C5.21063 4.43995 3.11632 7.13742 1.62518 10.0862C0.686932 11.9459 0 14.8445 0 16.9388Z" fill="white"/>
</g>
</g>
<defs>
<clipPath id="clip0_35_421">
<rect width="35" height="35" fill="white"/>
</clipPath>
</defs>
</svg>
