<svg width="29" height="25" viewBox="0 0 29 25" fill="none" xmlns="http://www.w3.org/2000/svg">
<g id="&#208;&#178;&#208;&#176;&#208;&#186;&#208;&#176;&#208;&#189;&#209;&#129;&#208;&#184;&#208;&#184; &#208;&#177;&#208;&#181;&#208;&#187; 1" clip-path="url(#clip0_35_472)">
<g id="D:_x005c_&#208;&#160;&#208;&#176;&#208;&#177;&#208;&#190;&#209;&#130;&#208;&#176;_x005c_&#208;&#186;&#208;&#190;&#209;&#128;&#209;&#129;_x005c_&#209;&#129;&#208;&#176;&#208;&#185;&#209;&#130;_x005c_ezgif.com_gif_maker-_2_.gif_x0020_3">
<g id="_1349887200">
<path id="Vector" fill-rule="evenodd" clip-rule="evenodd" d="M2.32754 24.9953H26.093C26.877 24.9953 27.563 24.4563 27.9305 24.0152C28.3715 23.4762 28.4205 22.9617 28.4205 22.1777V21.6142V4.34137L28.396 4.36587L25.3335 13.4555C25.1375 13.9456 24.7945 14.3131 24.4025 14.5826C23.986 14.8521 23.4224 14.9991 22.7609 14.9991H18.3753C18.3753 15.7586 18.4979 16.6651 17.3708 16.6651H11.0497C9.92269 16.6651 10.0452 15.7586 10.0452 14.9991H5.65961C3.35656 14.9991 3.08706 13.529 2.57255 11.9855C2.40105 11.4465 2.22954 10.9565 2.05804 10.442L0 4.34137V21.5652V22.3247C0 23.0107 0.0735014 23.4762 0.465509 23.9907C0.833016 24.4563 1.54353 25.0198 2.32754 25.0198V24.9953Z" fill="white"/>
<path id="Vector_2" fill-rule="evenodd" clip-rule="evenodd" d="M10.0452 2.67531C10.0452 2.0138 10.3882 1.67079 11.0497 1.67079H17.3708C18.4978 1.67079 18.3753 2.57731 18.3753 3.33682H10.0452V2.67531ZM8.37916 2.3323V3.33682H1.44553C1.47003 3.63083 1.73953 4.34134 1.86203 4.65985C2.20504 5.71337 4.43458 12.6715 4.72859 13.0145C4.85109 13.1615 5.04709 13.333 5.2921 13.333H10.0697C10.0697 12.5735 9.94719 11.667 11.0742 11.667H17.3953C18.5223 11.667 18.3998 12.5735 18.3998 13.333H23.1774C23.3979 13.333 23.5939 13.186 23.7164 13.039C24.0105 12.696 25.1375 9.04543 25.2845 8.55542L26.583 4.68435C26.681 4.36584 26.975 3.60633 26.9995 3.33682H20.0659V2.3323C20.0659 1.18078 18.8899 0.00476074 17.7383 0.00476074H10.7312C9.57968 0.00476074 8.40366 1.18078 8.40366 2.3323H8.37916Z" fill="white"/>
<path id="Vector_3" fill-rule="evenodd" clip-rule="evenodd" d="M11.7112 14.999H16.7338V13.333H11.7112V14.999Z" fill="white"/>
</g>
</g>
</g>
<defs>
<clipPath id="clip0_35_472">
<rect width="28.445" height="25" fill="white"/>
</clipPath>
</defs>
</svg>
