<svg width="29" height="25" viewBox="0 0 29 25" fill="none" xmlns="http://www.w3.org/2000/svg">
<g clip-path="url(#clip0_35_790)">
<path fill-rule="evenodd" clip-rule="evenodd" d="M19.0573 16.3085C19.0573 15.1229 19.2129 14.6858 20.0428 13.8411C20.5466 13.3298 21.295 13.0779 22.2879 13.0779H27.3042V18.9833H21.7322C21.0209 18.9833 20.2799 18.5091 19.9094 18.1312C19.5315 17.7533 19.0573 17.0198 19.0573 16.3085ZM17.8347 15.7527C17.8347 17.1828 18.1089 18.0571 19.0499 18.9981C19.6353 19.5909 20.643 20.2133 21.7914 20.2133H24.9702V23.0586C24.9702 23.5328 24.7182 23.7847 24.244 23.7847H3.12675C2.45989 23.7847 1.88194 23.4809 1.58556 23.0956C1.15581 22.5251 1.2299 22.1546 1.2299 21.221V7.79487C2.32652 8.37282 2.30429 8.35059 3.73434 8.35059C10.4548 8.35059 17.3087 8.39505 24.0143 8.35059C24.3626 8.35059 24.9627 8.33577 24.9627 8.96558V11.8627C22.8584 11.8627 20.5911 11.5737 19.2055 12.9593C18.4794 13.6855 17.8273 14.6043 17.8273 15.7602L17.8347 15.7527ZM17.0567 1.43005C17.1012 1.63011 17.7014 2.57854 17.857 2.8601L20.3466 7.11319H7.58731L14.6783 2.83787C15.0932 2.58594 15.4415 2.37848 15.8638 2.12655C16.2787 1.87463 16.6418 1.64493 17.0567 1.43005ZM19.7316 3.60106C20.065 3.60106 20.5244 3.57142 20.8504 3.60106C21.7099 3.67515 21.4062 5.17929 21.4062 6.44633C21.2728 6.35 20.1317 4.35683 19.9391 4.00858L19.7316 3.60106ZM5.07547 7.11319H2.95633C2.05236 7.11319 1.2299 6.29073 1.2299 5.54977C1.2299 4.80882 1.33364 4.3346 2.0005 3.8678C2.67477 3.39359 4.20114 3.60106 5.29775 3.60106C7.1946 3.60106 9.08404 3.60106 10.9809 3.60106C10.8846 3.73443 10.4622 3.95671 10.277 4.06786L6.61666 6.26109C6.34991 6.41669 6.14985 6.54265 5.88311 6.69825C5.69787 6.8094 5.26812 7.11319 5.06806 7.11319H5.07547ZM0.00732422 5.1052V22.1546C0.00732422 23.3846 0.92611 24.3997 1.94122 24.7924C2.3117 24.9332 2.79332 24.9999 3.29717 24.9999H24.1403C25.437 24.9999 26.2001 24.2367 26.2001 22.94V20.2059H27.9858C28.297 20.2059 28.5416 19.9614 28.5416 19.6502V12.4036C28.5416 11.633 27.1041 11.8479 26.2001 11.8479V9.17305C26.2001 8.01716 25.4888 7.11319 24.4144 7.11319H22.6287V4.32719C22.6287 3.43805 22.2212 2.86751 21.6062 2.56372C21.006 2.26733 19.6945 2.37848 18.9462 2.37848L17.8421 0.414942C17.3161 -0.444568 16.7529 0.170426 15.4266 0.970659L13.2704 2.26733C13.0333 2.40812 13.0333 2.37848 12.6555 2.37107H2.90446C2.01532 2.36366 1.41514 2.75637 0.918701 3.17871C0.474127 3.5566 0.00732422 4.46057 0.00732422 5.1052Z" fill="#34A343"/>
<path fill-rule="evenodd" clip-rule="evenodd" d="M21.3987 16.0343C21.3987 15.3526 22.5694 15.3008 22.5694 15.975C22.5694 16.1603 22.5324 16.3011 22.4435 16.4122C22.0582 16.879 21.3987 16.5382 21.3987 16.0343ZM23.792 16.0936C23.792 14.1893 21.2357 13.4854 20.354 15.3304C19.6575 16.7901 21.2283 18.3683 22.6806 17.7089C23.2511 17.4495 23.792 16.9086 23.792 16.0936Z" fill="#34A343"/>
</g>
<defs>
<clipPath id="clip0_35_790">
<rect width="28.5268" height="25" fill="white"/>
</clipPath>
</defs>
</svg>
